<svg width="54" height="54" viewBox="0 0 54 54" fill="none" xmlns="http://www.w3.org/2000/svg">
<path d="M20.9653 53.9935C20.2496 53.7349 19.5671 53.3907 18.9343 52.9682C18.7254 52.8245 18.4642 52.8964 18.2225 52.8898C17.1973 52.8637 16.172 52.9617 15.1533 52.8245C13.4097 52.596 12.2865 51.5772 11.6661 49.9904C11.2351 48.8802 10.8824 47.7309 10.8171 46.5227C10.8041 46.2615 10.6082 46.2093 10.4514 46.1048C7.40828 44.0935 5.85406 41.2854 6.01079 37.6088C6.08132 36.005 6.58938 34.4514 7.48012 33.1159C7.69562 32.7894 7.89153 32.4433 8.36825 32.5282C8.86455 32.6131 8.85149 33.0376 8.91026 33.3902C9.36739 35.8587 10.68 37.7264 12.8285 39.0128C13.2203 39.2479 13.2268 39.2414 13.2529 38.7778C13.3182 37.2581 13.8753 35.8006 14.8398 34.6245C15.1859 34.1935 15.0357 33.4033 14.5655 33.1551C9.88982 30.654 7.5846 26.344 8.08091 21.0348C8.22458 19.5132 8.48579 18.0178 8.9821 16.568C9.09964 16.2481 9.11989 15.9006 9.04087 15.5689C8.06132 11.5854 7.97642 7.60187 9.09311 3.62489C9.27205 2.93594 9.53979 2.27311 9.88982 1.65273C10.8302 0.0593204 11.6791 -0.228015 13.3378 0.150745C14.9247 0.516445 16.2504 1.4111 17.563 2.31882C18.216 2.77529 18.8377 3.27486 19.4241 3.81427C19.5939 3.971 19.7311 3.99712 19.9466 3.89917C22.8395 2.65187 25.8565 2.06414 29.0107 2.21434C31.4269 2.33188 33.7321 2.91961 35.9459 3.85998C36.2398 3.98406 36.4161 3.95794 36.6577 3.74897C38.1401 2.47555 39.7009 1.31315 41.5163 0.529505C42.2542 0.209518 43.0117 -0.0125135 43.828 0.000547171C44.4634 -0.002718 45.0682 0.274822 45.4802 0.758068C46.4402 1.82251 46.8581 3.14165 47.1585 4.49343C47.965 8.12169 47.9062 11.889 46.9887 15.4905C46.9006 15.8053 46.9071 16.1397 47.0083 16.4505C47.5765 18.2333 47.9356 20.0618 47.9683 21.9425C48.0205 24.8551 47.374 27.5586 45.4933 29.8704C44.3864 31.2346 43.0078 32.3532 41.4445 33.1551C41.0265 33.3772 40.8045 34.1935 41.1179 34.5592C42.6656 36.3615 42.9399 38.4839 42.6983 40.7369C42.6591 41.1091 42.744 41.305 43.0705 41.5205C44.148 42.2258 44.7553 43.2772 45.0296 44.5179C45.5455 46.8297 44.9578 48.9651 43.828 50.9503C43.1489 52.1454 41.993 52.7396 40.6086 52.8376C39.616 52.9094 38.6168 52.8768 37.6177 52.8702C37.3238 52.8702 37.0757 52.929 36.834 53.1184C36.2463 53.569 35.5541 53.778 34.8357 53.8955C34.777 53.902 34.7247 53.9151 34.7117 53.9804H32.6611C32.426 53.8955 32.1714 53.9216 31.9297 53.8629C31.564 53.7061 31.2114 53.5298 30.9306 53.2294C30.77 53.0649 30.546 52.978 30.3161 52.9911H25.7187C25.4967 52.9911 25.2943 53.0368 25.131 53.1935C24.6804 53.631 24.158 53.9184 23.5245 53.9771H23.2698C23.198 53.9053 23.1131 53.9445 23.0282 53.9314C22.9629 53.938 22.8911 53.9184 22.8388 53.9771H22.3295C22.1675 53.9053 21.9821 53.9053 21.8201 53.9771H21.4805C21.4407 53.9301 21.3702 53.9249 21.3232 53.9647C21.3186 53.9687 21.3147 53.9726 21.3107 53.9771C21.1965 53.9922 21.0809 53.9974 20.9653 53.9935Z" fill="#31201B"/>
<path d="M23.5245 53.9935C24.1776 53.7649 24.7849 53.4515 25.2616 52.9356C25.3465 52.8441 25.4771 52.8898 25.5881 52.8898C27.1946 52.8898 28.8011 52.8964 30.4075 52.8964C30.6491 52.8964 30.8385 52.9421 31.0018 53.1511C31.2499 53.471 31.6222 53.6343 31.9813 53.8106C32.014 53.9412 32.2687 53.778 32.2295 54C29.3372 53.9935 26.4351 53.9915 23.5245 53.9935Z" fill="#FEFEFE"/>
<path d="M32.2367 53.9935C32.1844 53.889 32.0212 53.9347 31.9885 53.8041C32.2171 53.8563 32.4718 53.8237 32.6677 53.9935H32.2367Z" fill="#EEEDED"/>
<path d="M21.8208 53.9935C21.9657 53.8629 22.1852 53.8629 22.3301 53.9935H21.8208Z" fill="#4B3C37"/>
<path d="M23.0158 53.9216C23.1072 53.9282 23.2183 53.8498 23.2705 53.9935H23.0158C22.9897 53.9739 22.9766 53.9608 22.9897 53.9412C22.9949 53.9308 23.0047 53.9236 23.0158 53.9216Z" fill="#AAA3A1"/>
<path d="M21.3042 53.9935C21.363 53.8694 21.4152 53.889 21.474 53.9935H21.3042Z" fill="#978F8C"/>
<path d="M23.0158 53.9216C23.0171 53.9458 23.0145 53.97 23.0093 53.9935H22.8395C22.8715 53.9053 22.944 53.9053 23.0158 53.9216Z" fill="#8E8683"/>
<path d="M40.2886 3.61183C39.6813 4.34323 38.989 5.00932 38.4927 5.82562C38.1923 6.31539 38.2381 6.56355 38.6952 6.90966C43.1619 10.2793 45.7676 14.7526 46.6034 20.2642C46.7928 21.4919 46.6883 22.7327 46.6753 23.9669C46.6805 24.0544 46.6446 24.1393 46.5773 24.1955C45.7806 24.9922 44.8468 25.5342 43.7105 25.6452C41.4314 25.8673 39.5507 24.9791 37.8789 23.5163C36.3247 22.158 34.9337 20.6299 33.3338 19.3239C32.3412 18.5141 31.3224 17.7174 30.049 17.3843C27.8875 16.8097 25.85 17.0774 23.9692 18.3443C22.9636 19.0235 22.082 19.8528 21.1743 20.6495C19.8878 21.7858 18.7842 23.1376 17.3736 24.1302C16.4528 24.7767 15.4733 25.3579 14.3305 25.5081C12.6587 25.7236 11.0261 25.6975 9.68085 24.4502C9.58224 24.3764 9.49995 24.283 9.43922 24.1759C9.22372 23.4249 9.25637 22.6609 9.29555 21.8968C9.42094 19.0039 10.1954 16.1762 11.5616 13.6229C12.9134 11.076 14.6962 8.89488 17.0014 7.15128C17.9026 6.46559 17.9026 6.30886 17.243 5.38155C16.6944 4.6175 15.9565 4.02324 15.4276 3.2396C15.6561 3.10899 15.839 3.25266 16.0283 3.33756C16.812 3.69672 17.4781 4.23221 18.1181 4.80035C18.4511 5.09422 18.7972 5.36849 19.1303 5.6493C19.4502 5.92357 19.7637 5.96276 20.149 5.79297C21.2121 5.31168 22.3158 4.92508 23.4468 4.63709C25.3406 4.16691 27.254 3.93835 29.1935 4.08202C31.3688 4.23352 33.5009 4.76117 35.4953 5.64277C35.639 5.70807 35.7892 5.76031 35.9263 5.81909C36.2855 5.98235 36.5467 5.88439 36.8471 5.62971C37.7483 4.84607 38.7344 4.17344 39.7009 3.46163C39.936 3.29511 40.1515 3.32449 40.2886 3.61183Z" fill="#FDA524"/>
<path d="M9.66778 24.3522C10.0139 24.5743 10.3339 24.8485 10.7061 25.0183C12.306 25.7693 13.9386 25.6518 15.5451 25.0444C17.2299 24.4045 18.438 23.118 19.6984 21.9099C20.9914 20.6691 22.2844 19.4283 23.7342 18.3704C26.2026 16.568 29.7486 16.5419 32.204 18.3312C33.6603 19.3957 34.9533 20.6234 36.2463 21.8642C36.8536 22.4454 37.4675 23.0135 38.0944 23.5751C39.4658 24.8028 41.0722 25.5081 42.9138 25.593C43.9129 25.6387 44.8598 25.4101 45.6892 24.7963C45.97 24.5808 46.2443 24.3522 46.5773 24.2086C46.5499 24.6389 46.4617 25.0634 46.3161 25.4689C44.8729 27.7545 42.9464 29.4655 40.478 30.5952C37.9507 31.7576 35.2929 32.3715 32.5501 32.6784C30.7412 32.8809 28.9258 32.9919 27.1038 32.9266C23.8125 32.8156 20.5539 32.4629 17.4193 31.3528C15.31 30.6083 13.3574 29.5961 11.7575 28.0353C10.8759 27.1799 10.0465 26.2395 9.63513 25.0314C9.56983 24.842 9.55677 24.6396 9.52412 24.4502C9.498 24.3228 9.56983 24.2934 9.66778 24.3522Z" fill="#FDFEFD"/>
<path d="M9.66778 24.3522C9.498 24.5416 9.61554 24.731 9.66778 24.9138C9.89635 25.6844 10.4318 26.2656 10.902 26.886C12.3779 28.8255 14.3827 30.0271 16.5965 30.9022C18.5993 31.6962 20.6989 32.2232 22.8395 32.4694C23.9497 32.6 25.0663 32.6588 26.183 32.7372C27.1038 32.796 28.0311 32.8221 28.9519 32.7894C31.9428 32.6849 34.9076 32.3976 37.7809 31.4899C39.6486 30.8956 41.4118 30.1185 42.9987 28.9561C44.1154 28.1464 44.997 27.1211 45.7871 26.0044C45.9354 25.7967 46.1111 25.61 46.3096 25.4493C45.7153 27.9047 44.2525 29.7593 42.215 31.183C40.0274 32.7045 37.5589 33.5339 34.9664 34.0237C29.8792 34.9836 24.8117 34.951 19.7702 33.7363C17.3279 33.1486 15.0292 32.2278 13.057 30.6279C11.0849 29.0279 9.89635 26.9709 9.45228 24.4698C9.43792 24.3725 9.434 24.2739 9.43922 24.1759C9.51759 24.2347 9.58942 24.2934 9.66778 24.3522Z" fill="#DEDEDE"/>
<path d="M24.5309 46.4117C24.5504 47.9072 24.57 49.3961 24.5178 50.8916C24.3088 50.996 24.0999 50.9438 23.8909 50.8916C23.5056 50.8067 23.1203 50.6956 22.7285 50.6108C21.9448 50.4475 21.1743 50.5193 20.4167 50.7675C20.2469 50.8263 20.0772 50.9242 19.8813 50.8654C19.8382 50.8426 19.8127 50.7962 19.8159 50.7479C20.0902 50.4083 20.0249 50.0753 19.8094 49.7357C18.7384 47.9986 18.0005 46.0983 17.2103 44.2306C16.4659 42.4609 16.1394 40.5801 16.1459 38.6602C16.1459 38.0072 16.3353 37.3672 16.4267 36.7207C16.4463 36.577 16.5116 36.4399 16.701 36.4595C17.0445 36.5646 17.3749 36.707 17.6871 36.884C17.6087 37.8635 17.9287 38.7451 18.4185 39.5549C18.9605 40.443 19.6592 41.2136 20.3318 42.0038C21.3832 43.2315 22.6566 44.2175 23.7472 45.4061C24.0411 45.7195 24.3611 46.0069 24.5309 46.4117Z" fill="#FDA524"/>
<path d="M38.4666 36.8448C38.7213 36.7011 38.9695 36.5509 39.2568 36.4791C39.518 36.4007 39.5441 36.6162 39.5703 36.7599C39.7531 37.6937 39.8902 38.6145 39.8249 39.5875C39.7257 41.0497 39.4174 42.4896 38.9107 43.8649C38.1793 45.8371 37.3826 47.7831 36.279 49.5855C36.07 49.9251 35.9394 50.3038 35.7108 50.6238C35.1884 50.6695 34.679 50.5063 34.1501 50.5193C33.497 50.5219 32.8479 50.6205 32.2236 50.8132C32.0734 50.8589 31.9297 50.9242 31.7665 50.885C31.6163 50.8067 31.5771 50.6695 31.564 50.5193C31.4661 50.1667 31.5836 49.8075 31.4922 49.4549V49.2263C31.5575 49.1284 31.5118 49.0043 31.5575 48.8998C31.5902 48.2468 31.564 47.5937 31.5706 46.9407C31.5719 46.895 31.5693 46.8493 31.564 46.8036C31.5706 46.7056 31.5836 46.6076 31.5902 46.5162C31.884 45.6999 32.4718 45.0991 33.1052 44.5441C34.679 43.1792 36.1157 41.6838 37.3173 39.9793C37.9285 39.1317 38.2981 38.1339 38.3883 37.0929C38.3745 37.0028 38.4033 36.9107 38.4666 36.8448Z" fill="#FDA524"/>
<path d="M21.8208 38.0921C22.8917 38.2161 23.9692 38.3402 25.0402 38.4708C25.3341 38.51 25.1382 38.6667 25.0925 38.7712C24.5178 40.0512 24.7464 41.514 25.6737 42.4609C26.712 43.5253 28.3838 43.7343 29.7225 42.9637C30.9698 42.2454 31.5249 40.7173 31.1134 39.2088C31.0481 38.9671 30.7935 38.6798 30.9371 38.51C31.0612 38.3663 31.4204 38.4316 31.6685 38.399C32.4848 38.301 33.3011 38.1966 34.1239 38.0986C34.3003 38.3859 34.0782 38.5884 33.9542 38.7908C33.6276 39.3198 33.1901 39.7769 32.8766 40.3189C32.2759 41.3638 31.7338 42.4413 31.3681 43.5972C31.327 43.763 31.265 43.923 31.1853 44.0739C31.1396 44.1522 31.1004 44.3155 31.133 44.3481C30.4016 44.2437 30.2384 44.3677 30.2188 45.171C30.1927 46.3203 30.2057 47.4762 30.1992 48.6255C30.1992 48.7692 30.1861 48.9063 30.1796 49.05C29.716 49.4353 29.1413 49.4745 28.5862 49.5528C27.7634 49.6704 26.9471 49.5463 26.1634 49.272C26.0198 49.2198 25.8696 49.161 25.8043 48.9978C25.7912 47.7243 25.7847 46.4444 25.7651 45.171C25.752 44.4135 25.7455 44.4135 24.9815 44.2567C24.7529 43.989 24.7006 43.6363 24.5831 43.3229C23.9954 41.7687 23.2313 40.3189 22.2126 38.9998C22.0101 38.7386 21.7685 38.4774 21.8208 38.0921Z" fill="#DEDEDE"/>
<path d="M21.8208 38.0921C22.2256 39.0259 22.9701 39.7377 23.4468 40.6258C24.0737 41.7882 24.6484 42.9702 24.9815 44.2502C24.6419 44.4918 24.5309 44.8314 24.5309 45.2363C24.5243 45.6281 24.6092 46.0199 24.5374 46.4117C22.6501 44.2698 20.3645 42.5066 18.6927 40.1622C18.0893 39.3322 17.7008 38.365 17.563 37.3476C17.5434 37.1974 17.4128 36.9689 17.6936 36.884C18.9605 37.3607 20.2731 37.6676 21.5791 38.0072C21.664 38.0366 21.7424 38.0659 21.8208 38.0921Z" fill="#FDFEFD"/>
<path d="M31.1265 44.3481C31.12 44.2567 30.9175 44.2894 31.0481 44.0673C31.342 43.571 31.44 42.9833 31.6751 42.4478C32.2171 41.2266 32.8179 40.0446 33.6733 39.0063C33.8823 38.7451 34.1043 38.4708 34.1174 38.1051C34.8292 37.9223 35.541 37.7525 36.2463 37.5501C36.9908 37.3346 37.7287 37.0864 38.4666 36.8448C38.4993 38.0007 38.0813 39.0194 37.4479 39.9532C36.4781 41.3579 35.3471 42.6444 34.0782 43.7865C33.164 44.6159 32.2236 45.4257 31.5836 46.5032C31.3485 45.9742 31.5053 45.4126 31.453 44.8706C31.4263 44.6322 31.3877 44.4265 31.1265 44.3481Z" fill="#FDFEFD"/>
<path d="M35.7363 50.5781C35.6449 50.2385 35.8865 50.01 36.0302 49.7683C37.4995 47.2999 38.6423 44.6943 39.3606 41.9189C39.7916 40.2536 39.8961 38.5427 39.4847 36.8382C39.4521 36.7011 39.4651 36.5052 39.2496 36.4725C39.3541 36.4072 39.4586 36.3289 39.5696 36.2701C40.6928 35.6954 40.4904 35.5518 41.0389 36.786C41.692 38.2553 41.6136 39.7965 41.3393 41.3507C40.9606 43.4731 40.0986 45.4191 39.2235 47.3652C38.59 48.7692 37.8717 50.121 36.8922 51.316C36.6636 51.303 36.5591 51.0744 36.3567 51.0091C36.1418 50.885 35.8741 50.8197 35.7363 50.5781Z" fill="#F08102"/>
<path d="M16.7075 36.4595C16.6135 36.5006 16.5475 36.5868 16.5312 36.688C16.4136 37.7917 16.172 38.8757 16.3287 40.0185C16.5247 41.4683 16.7663 42.9049 17.3475 44.2567C18.1768 46.1832 18.9539 48.1423 20.051 49.9381C20.2665 50.2908 20.2208 50.552 19.8551 50.7479C19.4829 51.1005 19.1107 50.9177 18.7384 50.7544C18.4191 50.3933 18.1448 49.9936 17.9221 49.5659C16.6618 47.2084 15.4994 44.8053 14.8594 42.1931C14.4545 40.5475 14.2586 38.8888 14.8202 37.2301C14.9469 36.8827 15.0932 36.5424 15.2578 36.2113C15.4014 35.8913 15.5973 35.7803 15.9173 35.9828C16.172 36.146 16.4398 36.3028 16.7075 36.4595Z" fill="#F08102"/>
<path d="M38.2968 51.6099C39.6943 49.5528 40.6608 47.3717 41.5294 45.1448C41.7906 44.4722 41.9995 43.7735 42.2281 43.0878C42.2738 42.9572 42.2477 42.7743 42.4175 42.7351C42.6069 42.6894 42.7375 42.8135 42.855 42.9507C43.5472 43.7408 43.8868 44.6812 43.9521 45.713C44.0566 47.2933 43.5538 48.7431 42.8877 50.1406C42.4501 51.0548 41.6338 51.4728 40.6608 51.5903C39.8968 51.685 39.1321 51.623 38.2968 51.6099Z" fill="#F08102"/>
<path d="M17.6022 51.6099C16.6226 51.6099 15.6626 51.7405 14.7223 51.4401C14.0105 51.2115 13.4423 50.7936 13.1223 50.121C12.4693 48.7365 11.9926 47.2999 12.071 45.7326C12.1167 44.7596 12.4497 43.9041 13.0244 43.1335C13.0923 43.0414 13.1713 42.9585 13.2595 42.8854C13.586 42.6241 13.6905 42.6503 13.8015 43.0486C14.4741 45.4583 15.5124 47.7113 16.6748 49.9185C16.9687 50.4736 17.4389 50.9307 17.6022 51.6099Z" fill="#F08102"/>
<path d="M44.9578 11.8858C43.9848 10.4099 42.9399 8.99937 41.66 7.77166C41.1245 7.2623 40.5629 6.77905 40.0013 6.30233C39.8511 6.17173 39.8119 6.08683 39.949 5.92357C41.0722 4.56526 42.3326 3.37674 43.8476 2.46249C44.3962 3.64448 44.7031 4.89178 44.9055 6.17173C45.1602 7.81737 45.2125 9.47608 45.1733 11.1348C45.1668 11.396 45.1668 11.6768 44.9578 11.8858Z" fill="#C74F02"/>
<path d="M12.2603 2.54738C13.7035 3.40939 14.9508 4.4869 15.9696 5.82562C16.1459 6.05418 16.172 6.18479 15.9108 6.40029C14.3631 7.69983 12.9983 9.18875 11.7444 10.7691C11.6138 10.7952 11.5746 10.9324 11.4702 10.9911C11.412 11.0708 11.3461 11.1452 11.2742 11.2132C11.1175 11.3242 11.013 11.2785 10.9608 11.0956C10.9425 11.0277 10.9334 10.9572 10.9347 10.8866C10.9543 9.20181 10.8302 7.51045 11.1632 5.83868C11.3918 4.69587 11.6922 3.57265 12.2603 2.54738Z" fill="#C74F02"/>
<path d="M40.2886 3.61183C40.06 3.43551 39.8902 3.43551 39.629 3.64448C38.6429 4.42812 37.5654 5.10075 36.6447 5.96929C36.4879 6.11948 36.3051 6.0803 36.1288 6.00847C35.4169 5.73419 34.7051 5.44033 33.9868 5.18564C31.5745 4.31254 28.9983 3.98471 26.4442 4.22568C24.4851 4.402 22.5326 4.80035 20.7498 5.68848C19.8813 6.11948 19.2674 6.04765 18.5686 5.36849C17.8242 4.63709 17.021 3.93835 16.061 3.48775C15.8586 3.3898 15.6365 3.32449 15.4276 3.24613C14.7092 2.71064 13.9909 2.16862 13.2791 1.63313C13.3052 1.41763 13.4489 1.51559 13.5599 1.52865C14.4807 1.78333 15.2643 2.2927 16.0545 2.80207C17.0993 3.49102 18.0841 4.26682 18.9997 5.12034C19.3523 5.44033 19.6788 5.45992 20.0837 5.26401C24.2109 3.29837 28.4882 2.97186 32.8897 4.10814C33.9228 4.37784 34.9252 4.75464 35.8806 5.23136C36.3312 5.45339 36.6904 5.42074 37.0822 5.07463C38.3621 3.93835 39.7009 2.88043 41.2094 2.06414C41.6991 1.80292 42.202 1.56783 42.7505 1.44375C42.8485 1.40457 42.9334 1.37845 42.9269 1.53518C41.98 2.14903 41.1179 2.86084 40.2886 3.61183Z" fill="#E8C587"/>
<path d="M7.57154 36.0481C7.61725 35.8522 7.64991 35.6563 7.70868 35.4734C7.74786 35.3493 7.74133 35.1469 7.91765 35.1469C8.06132 35.1469 8.13968 35.3167 8.19193 35.4473C8.49885 36.1983 8.86455 36.9166 9.36086 37.5696C10.3404 38.8627 11.5812 39.8357 13.0179 40.5736C13.1876 40.665 13.377 40.7107 13.3836 40.9785C13.3901 41.2462 13.2791 41.3507 13.0766 41.4683C12.4889 41.8078 12.0318 42.2911 11.6726 42.8658C11.6073 42.9702 11.5942 43.1204 11.4375 43.1466C10.8824 42.9833 10.4906 42.5784 10.0988 42.1997C9.05393 41.1809 8.27029 39.9924 7.885 38.5623C7.7348 37.8439 7.53889 37.1321 7.55195 36.3877C7.54542 36.2734 7.59048 36.1591 7.57154 36.0481Z" fill="#F08102"/>
<path d="M12.2603 2.54738C12.3126 2.67146 12.3322 2.78248 12.2538 2.90655C11.6334 3.93835 11.4375 5.09422 11.2285 6.25662C10.9347 7.89574 11.111 9.54139 11.0522 11.2197C11.3069 11.1674 11.3853 10.9258 11.5746 10.8475C11.6177 10.8834 11.6236 10.9474 11.5877 10.9911C11.5838 10.9957 11.5792 11.0003 11.5746 11.0042C11.0653 11.9315 10.5559 12.8588 10.0074 13.8645C9.81798 13.3812 9.7788 12.9633 9.73962 12.5519C9.4784 9.58057 9.51106 6.62885 10.3927 3.73591C10.5598 3.23699 10.7557 2.74852 10.9804 2.27311C11.1306 1.94006 11.3069 1.90088 11.6008 2.09026C11.8228 2.24046 12.0644 2.358 12.2603 2.54738Z" fill="#DF6D03"/>
<path d="M44.9578 11.8858C45.1994 8.95366 45.0035 6.06724 44.0501 3.25919C43.9652 2.99798 43.7431 2.76288 43.8476 2.45596C43.879 2.42788 43.9116 2.40176 43.9456 2.37759C44.8207 1.81598 44.8729 1.82251 45.2778 2.80207C45.8851 4.2714 46.2051 5.81256 46.3357 7.3929C46.4467 8.72509 46.512 10.0573 46.4141 11.396C46.3559 12.2208 46.2201 13.0384 46.0092 13.8384C45.6239 13.1331 45.2908 12.5127 44.9578 11.8858Z" fill="#DF6D03"/>
<path d="M25.9284 36.5999C25.9218 36.6998 25.9218 36.8004 25.9284 36.9003C25.9675 37.1876 25.8435 37.2595 25.5692 37.2595C24.5504 37.2725 23.5644 37.0439 22.5718 36.8872C20.8308 36.6103 19.1309 36.1186 17.5107 35.4244C17.1999 35.2866 16.8969 35.1319 16.603 34.9608C16.4855 34.8955 16.3353 34.8367 16.3418 34.6538C16.3483 34.4579 16.2896 34.1771 16.394 34.0792C16.5312 33.9551 16.6944 34.2032 16.8512 34.2816C17.1385 34.4383 17.4324 34.5755 17.7654 34.6081C18.0194 34.6271 18.2696 34.6793 18.5099 34.7649C19.7245 35.235 21.0045 35.431 22.2779 35.6138C23.3293 35.764 24.3937 35.8424 25.4582 35.8881C25.8761 35.9077 25.961 36.0644 25.9218 36.417C25.9172 36.4778 25.9192 36.5392 25.9284 36.5999Z" fill="#C74F02"/>
<path d="M25.7977 48.9978C27.0842 49.5855 28.3968 49.5985 29.729 49.1871C29.8792 49.1414 30.0229 49.0957 30.1731 49.05C30.147 49.8402 30.3886 50.6303 30.1143 51.4205C30.0621 51.5576 30.0621 51.636 29.9119 51.636H25.9937C25.8108 51.636 25.739 51.5707 25.7455 51.3813C25.7651 50.5846 25.7847 49.7912 25.7977 48.9978Z" fill="#F08102"/>
<path d="M27.4369 42.1017C26.7055 41.9189 26.059 41.096 26.0067 40.2863C25.9545 39.4439 26.5096 38.6341 27.3193 38.3468C28.1617 38.0529 29.0695 38.288 29.5396 38.928C29.4802 39.2623 29.4476 39.6006 29.4417 39.9402C29.4352 40.9981 28.4752 42.0201 27.4369 42.1017Z" fill="#F2E156"/>
<path d="M35.6586 35.284C36.7831 35.045 37.89 34.7263 38.9695 34.3306C39.0622 34.2927 39.1582 34.264 39.2568 34.2457C39.4201 34.2196 39.6617 34.0498 39.7335 34.2849C39.8053 34.52 39.8706 34.8138 39.5245 34.9771C37.9768 35.702 36.3769 36.2832 34.7051 36.6423C33.804 36.8317 32.9028 37.0211 31.982 37.0995C31.5902 37.1517 31.2114 37.2954 30.8131 37.2888C30.5388 37.2823 30.2188 37.3215 30.0751 37.0015C29.9837 36.7925 30.258 36.2832 30.5192 36.133C30.7216 36.0154 30.9437 35.9828 31.1722 35.9436C32.1126 35.7803 33.066 35.7477 34.0064 35.5975C34.5484 35.4995 35.1035 35.395 35.6586 35.284Z" fill="#C74F02"/>
<path d="M7.99602 38.5949C8.59028 40.5279 9.79839 41.9907 11.4375 43.1335C11.2873 43.6233 11.1175 44.1 10.9869 44.5963C10.9151 44.864 10.8302 44.8706 10.6212 44.7204C8.74701 43.3163 7.62379 41.4683 7.29727 39.1435C7.17972 38.3696 7.21303 37.5801 7.39522 36.8187C7.61725 36.8513 7.61726 37.0407 7.63685 37.1974C7.68256 37.5566 7.78051 37.9092 7.74786 38.2749C7.72827 38.4447 7.80664 38.5753 7.99602 38.5949Z" fill="#DEDEDE"/>
<path d="M35.7363 50.5781C35.9648 50.6956 36.1934 50.8132 36.4154 50.9307C36.2914 51.2181 36.0628 51.0548 35.9126 51.0026C35.5796 50.8916 35.3575 50.9699 35.142 51.2507C34.8351 51.6556 34.4367 51.9821 34.058 52.3544C34.2604 52.5046 34.5608 52.3413 34.7698 52.6678C33.9339 52.6547 33.1699 52.7135 32.4058 52.6286C31.792 52.3739 31.5177 51.8711 31.5634 51.0744C31.6483 51.0156 31.5177 50.8001 31.7332 50.8263C32.4842 50.6173 33.2221 50.3822 34.0123 50.3757C34.5928 50.3776 35.1714 50.4455 35.7363 50.5781Z" fill="#FDFEFD"/>
<path d="M24.2958 51.9495C24.1456 52.2956 23.9301 52.5633 23.5317 52.6352C23.1007 52.6743 22.6305 52.7984 22.2518 52.5437C21.664 52.1519 21.122 51.6817 20.7824 51.0352C20.6322 50.7544 20.7367 50.6369 21.0437 50.5781C22.0559 50.3822 23.0093 50.6238 23.9562 50.9307C24.4656 51.094 24.4917 51.1658 24.348 51.7078C24.3284 51.7862 24.3545 51.8809 24.2958 51.9495Z" fill="#FDFEFD"/>
<path d="M24.2958 51.9495C24.3219 51.4314 24.065 51.0831 23.5252 50.9046C22.7226 50.6271 21.8658 50.5422 21.0241 50.6565C20.789 50.6891 20.7628 50.7871 20.8608 50.9634C21.2592 51.6425 21.8338 52.1454 22.4869 52.5568C22.7938 52.7462 23.1856 52.5764 23.5382 52.6286C21.4616 52.9029 20.2731 52.7984 19.1825 51.3291C19.0715 51.1071 19.2413 51.0222 19.3849 50.9634C19.5286 50.9046 19.6853 50.8263 19.8551 50.8197C21.1351 50.3038 22.4216 50.2973 23.7276 50.7218C23.9823 50.8067 24.2566 50.8328 24.5178 50.885C24.5243 51.2573 24.4851 51.6197 24.2958 51.9495Z" fill="#DEDEDD"/>
<path d="M32.413 52.6221H34.6261C34.4237 52.498 34.2147 52.5568 34.0123 52.5372C33.947 52.5307 33.8621 52.5503 33.8294 52.4654C33.7968 52.3805 33.8621 52.3282 33.9143 52.2891C34.4322 51.8901 34.8952 51.4244 35.2922 50.9046C35.4098 50.7479 35.5469 50.7805 35.7102 50.8263C35.9453 50.8916 36.1673 51.0483 36.435 50.9307C36.644 51.0026 36.7746 51.1658 36.9052 51.3226C36.1346 52.2956 35.1551 52.818 33.8882 52.7266C33.3854 52.6874 32.8897 52.805 32.413 52.6221Z" fill="#DEDEDE"/>
<path d="M27.4369 42.1017C28.0638 41.8927 28.6189 41.5662 28.9976 40.9981C29.2464 40.6337 29.3698 40.1981 29.3503 39.7573C29.3372 39.4765 29.285 39.1565 29.5462 38.9345C30.1274 39.6789 30.1665 40.5932 29.6572 41.3442C29.1805 42.0495 28.3185 42.3466 27.4369 42.1017Z" fill="#FCFCFB"/>
<path d="M35.6586 35.284C34.9206 35.6497 34.1109 35.6889 33.3142 35.7934C32.4848 35.8979 31.6555 35.9566 30.8326 36.1199C30.3755 36.2113 30.2645 36.5313 30.1535 36.8905C30.0882 37.106 30.2645 37.0929 30.369 37.119C30.7464 37.1863 31.133 37.1889 31.5118 37.1256C31.6685 37.106 31.8187 37.0668 31.9755 37.0929C31.4138 37.2562 30.8784 37.537 30.2514 37.3476C29.9053 37.2431 29.8008 37.0407 29.8531 36.7142C29.8531 36.7011 29.8596 36.688 29.8596 36.675C29.9902 35.8326 30.0555 35.7346 30.9371 35.7216C32.2824 35.702 33.6146 35.5322 34.9337 35.2971C35.1688 35.2579 35.417 35.284 35.6586 35.284Z" fill="#613F36"/>
<path d="M27.9919 36.9427H27.9071C27.2279 36.9623 27.241 36.9623 27.254 36.2897C27.2605 36.0154 27.3193 35.8652 27.6328 35.8979C27.8548 35.924 28.0834 35.8979 28.3119 35.9044C28.6842 35.9109 28.854 36.0415 28.8213 36.4725C28.7952 36.8382 28.7429 37.0342 28.325 36.9493C28.2264 36.9264 28.1095 36.9427 27.9919 36.9427Z" fill="#DCDCDC"/>
<path d="M7.99602 38.5949C7.97642 38.6798 7.96336 38.7712 7.83929 38.6863C7.69562 38.5884 7.5846 38.5035 7.61725 38.2815C7.68582 37.7819 7.60615 37.2732 7.38869 36.8187C7.34298 36.6358 7.42134 36.466 7.47359 36.2962C7.50232 36.259 7.55652 36.2518 7.59375 36.2812C7.60354 36.289 7.61138 36.2988 7.61725 36.3093C7.68256 37.0864 7.84582 37.8407 7.99602 38.5949Z" fill="#FBF5EE"/>
<path d="M19.8551 50.8263C19.6527 51.0222 19.2543 50.9569 19.1825 51.3291C19.0023 51.1652 18.8521 50.9706 18.7384 50.7544C19.1107 50.7479 19.4894 50.9373 19.8551 50.7479V50.8263Z" fill="#F4A025"/>
<path d="M31.564 48.952C31.5575 49.05 31.5771 49.1545 31.4726 49.2198C31.5183 48.41 31.4008 47.6003 31.5445 46.7905C31.5588 46.8055 31.5699 46.8231 31.5771 46.8427C31.5967 47.548 31.6293 48.2533 31.564 48.952Z" fill="#988F8D"/>
<path d="M31.4791 49.4483C31.662 49.7814 31.4791 50.1602 31.6163 50.4932C31.564 50.5716 31.6359 50.6761 31.5445 50.7414C31.3747 50.3234 31.4465 49.8859 31.4791 49.4483Z" fill="#DBBD93"/>
<path d="M31.551 50.7479C31.5771 50.663 31.5379 50.565 31.6228 50.4997C31.662 50.6107 31.7012 50.7152 31.7338 50.8263C31.6751 50.9111 31.6228 50.996 31.564 51.0744C31.5569 50.9667 31.5569 50.8524 31.551 50.7479Z" fill="#FAD8A5"/>
<path d="M13.5468 1.53191C13.4489 1.55804 13.3313 1.51885 13.266 1.6364C13.1876 1.59722 13.1093 1.56457 13.0309 1.52538C13.1027 1.336 13.2334 1.4209 13.3574 1.45355C13.4293 1.47641 13.488 1.50253 13.5468 1.53191Z" fill="#C6A774"/>
<path d="M13.364 1.45028C13.2529 1.47641 13.1223 1.39804 13.0374 1.52212C12.9721 1.48294 12.7958 1.45681 12.9852 1.37192C13.1158 1.32098 13.264 1.35168 13.364 1.45028Z" fill="#937955"/>
<path d="M7.62379 36.3093C7.57807 36.3028 7.52583 36.3028 7.48012 36.2962C7.454 36.1917 7.53236 36.1264 7.57154 36.0415C7.63554 36.1153 7.65513 36.2172 7.62379 36.3093Z" fill="#D9B690"/>
<path d="M11.5681 11.0042V10.8475C11.6073 10.7822 11.6269 10.6581 11.7444 10.7691C11.6987 10.8605 11.6791 10.9715 11.5681 11.0042Z" fill="#CB6105"/>
<path d="M42.9138 1.54171C42.8811 1.46335 42.8028 1.46988 42.7375 1.45028C42.8289 1.36539 42.9464 1.32621 43.0313 1.4111C43.077 1.45682 42.9922 1.52212 42.9138 1.54171Z" fill="#9A7F59"/>
<path d="M38.3164 19.8397C37.6438 19.8136 37.1018 19.7875 36.5859 19.6112C35.0774 19.1149 34.568 17.8415 35.3125 16.4309C35.959 15.2032 37.4414 14.6416 38.7866 15.1183C40.0907 15.5702 40.8665 16.9102 40.6086 18.2659C40.4518 19.1018 39.9164 19.6308 39.0348 19.781C38.754 19.8267 38.4732 19.8267 38.3164 19.8397Z" fill="#31201B"/>
<path d="M17.7393 19.8267C17.4781 19.8202 17.1646 19.8463 16.8577 19.7679C15.7214 19.4871 15.2055 18.5533 15.4406 17.1884C15.6888 15.7387 17.1777 14.7134 18.6405 14.9746C20.2012 15.2489 21.2134 16.6203 20.9718 18.1223C20.8804 18.6904 20.5278 19.0561 20.051 19.3369C19.4568 19.6863 18.8103 19.8267 17.7393 19.8267Z" fill="#31201B"/>
<path d="M20.6453 10.1618C21.8861 10.0312 22.8264 11.5984 22.2909 12.8196C22.1616 13.1109 21.9148 13.3342 21.6118 13.4335C20.7498 13.7535 19.8878 13.7665 19.0584 13.3159C18.2095 12.8588 18.007 11.8988 18.6144 11.1479C19.1303 10.5144 19.7898 10.1226 20.6453 10.1618Z" fill="#FDFEFD"/>
<path d="M35.5018 13.6686C35.3125 13.649 35.1427 13.6359 34.9729 13.6098C33.4709 13.3616 33.3076 12.0752 33.8497 11.0499C34.4505 9.91362 35.7957 9.9528 36.7753 10.5732C36.9052 10.6607 37.0254 10.7613 37.1344 10.8736C37.5589 11.2981 37.9115 11.7748 37.696 12.4213C37.4871 13.0547 36.9908 13.4008 36.3639 13.5576C36.083 13.6294 35.7761 13.6359 35.5018 13.6686Z" fill="#FDFEFD"/>
<path d="M24.7268 20.7475C24.7006 19.8528 25.0402 19.2912 25.8696 18.9451C27.241 18.3704 28.6384 18.3508 30.0229 18.8928C30.6106 19.1214 31.1461 19.461 31.2832 20.1663C31.4008 20.6103 31.3224 21.0348 31.1526 21.4397C30.7739 22.3343 30.0947 22.9286 29.2327 23.34C29.1348 23.3857 29.0107 23.3923 28.9454 23.5098C29.076 23.7384 29.4025 23.7449 29.507 23.9996C30.5976 24.6983 31.3355 24.5743 32.1322 23.5686C32.3797 23.2375 32.5978 22.8855 32.7852 22.5172C32.9746 22.1711 33.2619 22.1319 33.5819 22.2886C33.8758 22.4388 34.0325 22.6478 33.8758 23.0135C33.484 23.9539 32.9419 24.7767 32.0408 25.2926C31.7469 25.4624 31.6163 25.6844 31.551 26.024C31.3159 27.2843 30.8065 28.4141 29.7747 29.2369C28.6515 30.1381 27.2018 30.112 26.0981 29.1781C25.0663 28.3031 24.5831 27.1407 24.3349 25.8542C24.2984 25.6185 24.1567 25.4114 23.9497 25.2926C23.1138 24.7506 22.526 23.9996 22.1603 23.0723C22.0101 22.6804 22.1212 22.4127 22.4607 22.269C22.846 22.1058 23.0811 22.1972 23.277 22.589C23.4442 22.9364 23.648 23.2643 23.8844 23.5686C24.6745 24.5677 25.4255 24.6918 26.5096 23.993C26.614 23.7384 26.921 23.7057 27.0973 23.4772C26.6859 23.2682 26.281 23.0723 25.9284 22.7915C25.5117 22.4702 25.1728 22.0594 24.9357 21.5899C24.7999 21.33 24.7287 21.0407 24.7268 20.7475Z" fill="#31201B"/>
<path d="M29.507 24.0061C29.2059 23.8651 28.9251 23.6855 28.6711 23.4706C30.1927 22.8568 31.2636 21.9229 31.2832 20.1663C31.7469 21.2438 31.342 22.6674 30.4016 23.3923C30.1143 23.6143 29.7486 23.7188 29.507 24.0061Z" fill="#DEDEDD"/>
<path d="M24.7268 20.7475C25.0729 22.1384 26.0198 22.9613 27.352 23.4576C27.0992 23.677 26.8178 23.8611 26.5161 24.0061C26.2222 23.7906 25.9414 23.5686 25.641 23.3661C25.0468 22.9613 24.7464 22.367 24.5766 21.7009C24.4917 21.3744 24.6615 21.0675 24.7268 20.7475Z" fill="#DDDDDD"/>
<path d="M31.564 48.952C31.5706 48.2468 31.5771 47.5415 31.5836 46.8427C31.6751 47.548 31.6947 48.2533 31.564 48.952Z" fill="#E5BA7E"/>
<path d="M38.3295 16.7509C38.336 17.2472 37.9703 17.6717 37.5197 17.6847C36.9712 17.6978 36.5859 17.3321 36.5728 16.7705C36.5598 16.2938 36.9712 15.8693 37.4609 15.8497C37.8724 15.8366 38.3164 16.3003 38.3295 16.7509Z" fill="#FCFDFC"/>
<path d="M19.4307 16.7901C19.4307 17.3452 19.0976 17.6586 18.5295 17.6586C17.994 17.6521 17.7001 17.3321 17.7066 16.7444C17.6942 16.2807 18.0593 15.8954 18.5229 15.8824C19.0584 15.8693 19.4307 16.235 19.4307 16.7901Z" fill="#FCFDFC"/>
<path d="M28.0305 20.9434C27.5015 20.865 26.953 20.8846 26.4632 20.6038C26.2281 20.4732 26.0126 20.2969 26.0191 20.0226C26.0257 19.7353 26.2477 19.5394 26.5089 19.4349C27.5015 19.0496 28.4941 19.0561 29.4867 19.4349C29.7414 19.5328 29.9765 19.6961 30.0092 19.9965C30.0353 20.323 29.7741 20.4601 29.5455 20.5973C29.0825 20.8846 28.5529 20.8911 28.0305 20.9434Z" fill="#614037"/>
<path d="M29.5978 27.526C29.5533 27.5985 29.5057 27.6677 29.4541 27.7349C28.3962 28.9888 27.3578 28.9365 26.3718 27.5978C26.4436 27.4411 26.5938 27.3823 26.744 27.3366C27.6648 27.0688 28.5725 27.1472 29.4737 27.4215C29.5259 27.4411 29.5697 27.4776 29.5978 27.526Z" fill="#F28B7E"/>
<path d="M29.5978 27.526C28.7031 27.3431 27.8019 27.1603 26.8877 27.415C26.7113 27.4672 26.5416 27.5325 26.3718 27.5913C26.0714 27.1995 26.0714 27.1929 26.5285 27.0493C27.4813 26.7456 28.5039 26.7391 29.4606 27.0297C29.8139 27.1407 29.8727 27.2713 29.5978 27.526Z" fill="#DDDBDB"/>
</svg>
