<svg width="54" height="54" viewBox="0 0 54 54" fill="none" xmlns="http://www.w3.org/2000/svg">
<path d="M27 54C41.9117 54 54 41.9117 54 27C54 12.0883 41.9117 0 27 0C12.0883 0 0 12.0883 0 27C0 41.9117 12.0883 54 27 54Z" fill="#8247E5"/>
<path d="M35.465 21.37C34.865 21.025 34.09 21.025 33.405 21.37L28.595 24.205L25.33 26.01L20.605 28.845C20.005 29.19 19.23 29.19 18.545 28.845L14.85 26.61C14.25 26.265 13.82 25.58 13.82 24.805V20.51C13.82 19.825 14.165 19.135 14.85 18.705L18.545 16.555C19.145 16.21 19.92 16.21 20.605 16.555L24.3 18.79C24.9 19.135 25.33 19.82 25.33 20.595V23.43L28.595 21.54V18.62C28.595 17.935 28.25 17.245 27.565 16.815L20.69 12.775C20.09 12.43 19.315 12.43 18.63 12.775L11.585 16.9C10.9 17.245 10.555 17.93 10.555 18.62V26.695C10.555 27.38 10.9 28.07 11.585 28.5L18.545 32.54C19.145 32.885 19.92 32.885 20.605 32.54L25.33 29.79L28.595 27.9L33.32 25.15C33.92 24.805 34.695 24.805 35.38 25.15L39.075 27.3C39.675 27.645 40.105 28.33 40.105 29.105V33.4C40.105 34.085 39.76 34.775 39.075 35.205L35.465 37.355C34.865 37.7 34.09 37.7 33.405 37.355L29.71 35.205C29.11 34.86 28.68 34.175 28.68 33.4V30.65L25.415 32.54V35.375C25.415 36.06 25.76 36.75 26.445 37.18L33.405 41.22C34.005 41.565 34.78 41.565 35.465 41.22L42.425 37.18C43.025 36.835 43.455 36.15 43.455 35.375V27.21C43.455 26.525 43.11 25.835 42.425 25.405L35.465 21.365V21.37Z" fill="white"/>
</svg>
