<?xml version="1.0" encoding="utf-8"?>
<!-- Generator: Adobe Illustrator 27.2.0, SVG Export Plug-In . SVG Version: 6.00 Build 0)  -->
<svg version="1.1" id="Layer_1" xmlns:xodm="http://www.corel.com/coreldraw/odm/2003"
	 xmlns="http://www.w3.org/2000/svg" xmlns:xlink="http://www.w3.org/1999/xlink" x="0px" y="0px" viewBox="0 0 40 40"
	 style="enable-background:new 0 0 40 40;" xml:space="preserve">
<style type="text/css">
	.st0{fill:url(#SVGID_1_);}
	.st1{fill:#FFFFFF;}
</style>
<g id="Layer_x0020_1">
	<g id="_1705781198752">
		
			<linearGradient id="SVGID_1_" gradientUnits="userSpaceOnUse" x1="-7.3157" y1="-2382.6416" x2="33.9323" y2="-2357.3457" gradientTransform="matrix(1 0 0 1 0 2385.8899)">
			<stop  offset="0" style="stop-color:#A229C5"/>
			<stop  offset="1" style="stop-color:#7B3FE4"/>
		</linearGradient>
		<path class="st0" d="M20,40L20,40c11,0,20-9,20-20l0,0C40,9,31,0,20,0l0,0C9,0,0,9,0,20l0,0C0,31,9,40,20,40z"/>
		<path class="st1" d="M25.8,24.3l5.7-3.3c0.3-0.2,0.5-0.5,0.5-0.8v-6.5c0-0.4-0.2-0.7-0.5-0.8l-5.7-3.3c-0.3-0.2-0.7-0.2-1,0
			l-5.7,3.3c-0.3,0.2-0.5,0.5-0.5,0.8v11.7l-4,2.3l-4-2.3v-4.6l4-2.3l2.6,1.5v-3.1l-2.1-1.2c-0.1-0.1-0.3-0.1-0.5-0.1
			c-0.2,0-0.3,0-0.5,0.1L8.6,19c-0.3,0.2-0.5,0.5-0.5,0.8v6.5c0,0.4,0.2,0.7,0.5,0.8l5.7,3.3c0.3,0.2,0.7,0.2,1,0l5.7-3.3
			c0.3-0.2,0.5-0.5,0.5-0.8V14.7l0.1,0l3.9-2.3l4,2.3v4.6l-4,2.3L22.7,20v3.1l2.1,1.2C25.2,24.5,25.5,24.5,25.8,24.3L25.8,24.3
			L25.8,24.3z"/>
	</g>
</g>
</svg>
