<?xml version="1.0" encoding="utf-8"?>
<!-- Generator: Adobe Illustrator 27.2.0, SVG Export Plug-In . SVG Version: 6.00 Build 0)  -->
<svg version="1.1" id="Layer_1" xmlns="http://www.w3.org/2000/svg" xmlns:xlink="http://www.w3.org/1999/xlink" x="0px" y="0px"
	 viewBox="0 0 250 250" style="enable-background:new 0 0 250 250;" xml:space="preserve">
<style type="text/css">
	.st0{fill:url(#SVGID_1_);}
	.st1{fill:url(#SVGID_00000139254312423030681100000013827532382633151644_);}
	.st2{fill:url(#SVGID_00000173150569131719278920000018205763522306440357_);}
	.st3{fill:#40187F;}
</style>
<g>
	<g>
		
			<linearGradient id="SVGID_1_" gradientUnits="userSpaceOnUse" x1="229.5229" y1="125" x2="161.374" y2="125" gradientTransform="matrix(1 0 0 -1 0 250)">
			<stop  offset="0" style="stop-color:#40187F"/>
			<stop  offset="1" style="stop-color:#40187F;stop-opacity:0"/>
		</linearGradient>
		<path class="st0" d="M185.9,127.1c-0.5-0.5-0.5-1-0.5-1.6c0,1.6-0.5,3.1-1.6,4.2l-0.5,0.5l0,0l40.1,40.1h-38.5
			c-0.5,0-1.6-0.5-2.1-0.5L164.1,151l-2.6,1.6l18.8,18.8c1,1,2.6,2.1,4.7,2.1h42.7c1.6,0,2.6-2.1,1.6-3.6L185.9,127.1z M185.9,123.4
			l43.2-43.2c1-1,0.5-3.6-1.6-3.6h-42.7c-1.6,0-3.1,0.5-4.7,2.1l-18.8,19.3l2.6,2.6l19.3-19.3c0.5-0.5,1-0.5,2.1-0.5H224l-39.6,39.6
			l-0.5,0.5l0,0l0.5,0.5c1,1,1.6,2.6,1.6,4.2C184.9,124.5,185.4,124,185.9,123.4L185.9,123.4z"/>
		
			<linearGradient id="SVGID_00000154411911637880148910000018287221555359504289_" gradientUnits="userSpaceOnUse" x1="91.8401" y1="125.2604" x2="185.0245" y2="125.2604" gradientTransform="matrix(1 0 0 -1 0 250)">
			<stop  offset="0" style="stop-color:#40187F"/>
			<stop  offset="1" style="stop-color:#40187F;stop-opacity:0"/>
		</linearGradient>
		<path style="fill:url(#SVGID_00000154411911637880148910000018287221555359504289_);" d="M183.3,129.2l-42.2,42.2
			c-1,1-2.6,2.1-4.7,2.1H93.8c-1.6,0-2.6-2.1-1.6-3.6l43.2-43.2c1-1,1-2.6,0-3.6L92.2,79.7c-1-1-0.5-3.6,1.6-3.6h42.7
			c1.6,0,3.1,0.5,4.7,2.1l42.7,42.7C185.4,123.4,185.4,127.1,183.3,129.2z"/>
		
			<linearGradient id="SVGID_00000154417271169809636600000000875885849995357334_" gradientUnits="userSpaceOnUse" x1="20.474" y1="125" x2="116.8401" y2="125" gradientTransform="matrix(1 0 0 -1 0 250)">
			<stop  offset="0" style="stop-color:#40187F"/>
			<stop  offset="1" style="stop-color:#40187F;stop-opacity:0"/>
		</linearGradient>
		<path style="fill:url(#SVGID_00000154417271169809636600000000875885849995357334_);" d="M68.8,80.2c24.5,0,44.3,19.8,44.3,44.3
			s-19.8,44.3-44.3,44.3S24,149.5,24,125S44.3,80.2,68.8,80.2 M68.8,147.4c12.5,0,22.4-9.9,22.4-22.4s-9.9-22.4-22.4-22.4
			s-22.4,9.9-22.4,22.4S56.2,147.4,68.8,147.4 M68.8,76.6c-26.6,0-48.4,21.4-48.4,48.4c0,26.6,21.4,48.4,48.4,48.4
			c26.6,0,48.4-21.4,48.4-48.4C116.7,98.4,95.3,76.6,68.8,76.6L68.8,76.6z M68.8,143.8c-10.4,0-18.7-8.3-18.7-18.8
			s8.3-18.8,18.8-18.8s18.8,8.3,18.8,18.8C87.5,135.4,79.2,143.8,68.8,143.8L68.8,143.8z"/>
		<g>
			<path class="st3" d="M125,250C56.2,250,0,193.8,0,125S56.2,0,125,0s125,56.2,125,125S193.8,250,125,250z M125,3.6
				C58.3,3.6,3.6,58.3,3.6,125S58.3,246.4,125,246.4S246.4,191.7,246.4,125S191.7,3.6,125,3.6z"/>
		</g>
		<g>
			<path class="st3" d="M41.1,76l-2.6-1.6c17.7-30.2,51-49,85.9-49c31.8,0,62.5,15.6,81.3,41.7l-2.1,1.6
				c-18.2-25.5-47.4-40.6-78.6-40.6C90.6,28.1,58.9,46.4,41.1,76z"/>
		</g>
		<g>
			<path class="st3" d="M125,224.5c-35.4,0-68.2-18.7-85.9-49.5l2.6-1.6c17.2,29.7,49.5,47.9,83.9,47.9c31.2,0,60.4-15.1,78.6-40.6
				l2.1,1.6C187.5,209.4,156.8,224.5,125,224.5z"/>
		</g>
	</g>
	<g>
		<path class="st3" d="M57.4,211.3c-1.5,2.2-1,4.9,1.2,6.6c2.3,1.6,5.1,1.2,6.6-0.9c1.5-2.2,1-4.9-1.2-6.6
			C61.8,208.7,59,209.1,57.4,211.3z M63.9,215.9c-1.1,1.5-2.9,1.8-4.4,0.7c-1.5-1-1.8-2.9-0.7-4.4c1.1-1.5,2.9-1.8,4.4-0.7
			C64.7,212.6,65,214.4,63.9,215.9z"/>
		<polygon class="st3" points="81.4,220.6 77.9,222.5 77.3,218.6 75.6,217.8 76.5,223.1 71.5,225.8 73.2,226.6 76.9,224.6 
			77.6,228.7 79.3,229.5 78.3,223.9 83,221.4 		"/>
		<path class="st3" d="M93.8,228.9c0.6,0.2,1.1,0.7,1.4,1.4l1.4-0.3c-0.2-1.1-1.1-2-2.3-2.4c-2.1-0.6-4,0.3-4.6,2.3
			c-0.6,2,0.4,3.8,2.5,4.4c1.3,0.4,2.5,0.1,3.3-0.7l-1-1c-0.6,0.5-1.3,0.6-1.9,0.4c-1.1-0.3-1.7-1.4-1.4-2.6
			C91.6,229.1,92.7,228.5,93.8,228.9z"/>
		<path class="st3" d="M110.7,231.1c-0.9-0.1-1.8,0.1-2.4,0.5l0.5-3.4l-1.6-0.2l-1.3,9.4l1.6,0.2l0.5-3.4c0.2-1.4,1-1.9,2.2-1.8
			c1,0.1,1.5,0.8,1.4,2l-0.5,3.7l1.6,0.2l0.5-3.9C113.4,232.4,112.3,231.3,110.7,231.1z"/>
		<path class="st3" d="M126.9,232c-1.1,0-2.2,0.3-2.9,0.9l0.6,1.2c0.5-0.4,1.3-0.7,2.1-0.7c1.1,0,1.7,0.5,1.7,1.5l0,0.1l-1.8,0
			c-2.1,0-2.8,0.9-2.8,2.1c0,1.2,1,2,2.6,2c1,0,1.8-0.4,2.1-1l0,0.8l1.5,0l-0.1-4C130,232.9,128.8,232,126.9,232z M126.7,237.9
			c-0.8,0-1.3-0.3-1.3-0.9c0-0.5,0.3-0.9,1.4-0.9l1.7,0l0,0.8C128.2,237.5,127.5,237.9,126.7,237.9z"/>
		<path class="st3" d="M144.5,230.3c-1,0.2-1.7,0.6-2.1,1.4l-0.2-0.9l-1.5,0.3l1.2,6.7l1.6-0.3l-0.6-3.4c-0.2-1.3,0.4-2.2,1.5-2.4
			c1-0.2,1.7,0.3,1.9,1.5l0.7,3.7l1.6-0.3l-0.7-3.9C147.5,230.7,146.1,230,144.5,230.3z"/>
		<path class="st3" d="M164.2,224.8l-1.4,0.5l0.3,0.9c-0.8-0.4-1.7-0.5-2.6-0.1c-1.8,0.7-2.8,2.4-2.1,4.3c0.7,1.9,2.5,2.6,4.4,2
			c0.9-0.3,1.5-0.9,1.9-1.6l0.1,0.3c0.5,1.3,0.1,2.2-1.4,2.7c-0.9,0.3-1.9,0.3-2.6,0.1l-0.3,1.4c1,0.3,2.3,0.2,3.5-0.2
			c2.3-0.8,3.1-2.3,2.3-4.6L164.2,224.8z M162.5,230.9c-1.1,0.4-2.2,0-2.6-1.1c-0.4-1.1,0.2-2.1,1.3-2.5c1.1-0.4,2.2,0,2.6,1.1
			C164.2,229.5,163.6,230.5,162.5,230.9z"/>
		<path class="st3" d="M179.6,223.6c-1,0.6-2.1,0.4-2.7-0.4l4.7-2.6c-0.1-0.1-0.1-0.3-0.2-0.4c-1-1.9-3-2.4-4.7-1.4
			c-1.8,1-2.4,3-1.4,4.8c1,1.8,3,2.4,5,1.2c1-0.6,1.7-1.4,1.9-2.3l-1.2-0.4C180.7,222.8,180.3,223.3,179.6,223.6z M177.2,219.9
			c0.9-0.5,1.9-0.3,2.5,0.5l-3.4,1.9C176,221.4,176.3,220.4,177.2,219.9z"/>
		<path class="st3" d="M191.7,213.3c-0.8-1.1-0.7-2.1,0.3-2.9c0.1-0.1,0.2-0.1,0.3-0.2l-0.9-1.2c-0.9,0.7-1.4,1.5-1.3,2.3l-0.6-0.8
			l-1.2,0.9l4.1,5.4l1.3-1L191.7,213.3z"/>
	</g>
</g>
</svg>
