<svg width="54" height="54" viewBox="0 0 54 54" fill="none" xmlns="http://www.w3.org/2000/svg">
<path d="M27 54C41.9117 54 54 41.9117 54 27C54 12.0883 41.9117 0 27 0C12.0883 0 0 12.0883 0 27C0 41.9117 12.0883 54 27 54Z" fill="#40187F"/>
<path d="M38.374 27.3552C38.2802 27.2614 38.2377 27.1463 38.2377 27.02C38.2377 27.2926 38.1327 27.564 37.9238 27.7629L37.8713 27.8154L45.416 35.3601H38.1964C38.0601 35.3601 37.9451 35.3076 37.8513 35.2138L34.3046 31.6559L33.8232 32.1374L37.3698 35.6953C37.5899 35.9154 37.8925 36.0404 38.2064 36.0404H46.1689C46.504 36.0404 46.6716 35.6327 46.4302 35.4026L38.3728 27.3564L38.374 27.3552ZM38.374 26.6849L46.4628 18.5961C46.7029 18.356 46.5365 17.9583 46.2014 17.9583H38.239C37.9251 17.9583 37.6324 18.0834 37.4023 18.3035L33.8132 21.8926L34.2946 22.3741L37.8838 18.7849C37.9776 18.6912 38.1039 18.6386 38.229 18.6386H45.4485L37.8938 26.1934L37.8725 26.2034L37.9251 26.2559C38.1339 26.4648 38.239 26.7274 38.239 26.9987C38.239 26.905 38.2802 26.7786 38.3753 26.6849H38.374Z" fill="url(#paint0_linear_3314_11056)"/>
<path d="M37.9238 27.7641L29.9926 35.6953C29.7725 35.9154 29.4699 36.0404 29.166 36.0404H21.2036C20.8684 36.0404 20.7008 35.6327 20.9422 35.4026L28.9884 27.3564C29.166 27.1788 29.166 26.8749 28.9884 26.6974L20.8997 18.6086C20.6596 18.3685 20.8259 17.9708 21.161 17.9708H29.1235C29.4374 17.9708 29.73 18.0959 29.9501 18.316L37.9126 26.2784C38.3415 26.6861 38.3415 27.3564 37.9226 27.7641H37.9238Z" fill="url(#paint1_linear_3314_11056)"/>
<path d="M16.4426 18.6499C21.036 18.6499 24.7827 22.3854 24.7827 26.99C24.7827 31.5946 21.0472 35.3301 16.4426 35.3301C11.838 35.3301 8.1025 31.5946 8.1025 26.99C8.1025 22.3854 11.848 18.6499 16.4426 18.6499ZM16.4426 31.2069C18.7662 31.2069 20.6596 29.3136 20.6596 26.99C20.6596 24.6664 18.7662 22.773 16.4426 22.773C14.119 22.773 12.2257 24.6664 12.2257 26.99C12.2257 29.3136 14.119 31.2069 16.4426 31.2069ZM16.4426 17.9596C11.4616 17.9596 7.42219 21.9989 7.42219 26.98C7.42219 31.961 11.4616 36.0004 16.4426 36.0004C21.4237 36.0004 25.463 31.961 25.463 26.98C25.463 21.9989 21.4349 17.9596 16.4426 17.9596ZM16.4426 30.5166C14.4967 30.5166 12.906 28.9371 12.906 26.98C12.906 25.0228 14.4855 23.4434 16.4426 23.4434C18.3998 23.4434 19.9792 25.0228 19.9792 26.98C19.9792 28.9371 18.3998 30.5166 16.4426 30.5166Z" fill="url(#paint2_linear_3314_11056)"/>
<path d="M27 50.4071C14.0878 50.4071 3.59291 39.9122 3.59291 27C3.59291 14.0878 14.0878 3.59291 27 3.59291C39.9122 3.59291 50.4071 14.0878 50.4071 27C50.4071 39.9122 39.901 50.4071 27 50.4071ZM27 4.28198C14.4742 4.28198 4.28323 14.4742 4.28323 26.9987C4.28323 39.5233 14.4755 49.7155 27 49.7155C39.5245 49.7155 49.7168 39.5233 49.7168 26.9987C49.7168 14.4742 39.5258 4.28323 27 4.28323V4.28198Z" fill="white"/>
<path d="M11.3352 17.802L10.8963 17.5406C14.2441 11.8592 20.4082 8.3226 27 8.3226C32.9953 8.3226 38.6566 11.2314 42.162 16.0975L41.7431 16.4013C38.3315 11.6717 32.8177 8.83659 27 8.83659C20.5858 8.8466 14.5905 12.2794 11.3352 17.8045V17.802Z" fill="white"/>
<path d="M27 45.6774C20.3869 45.6774 14.2128 42.1308 10.865 36.4169L11.304 36.1555C14.548 41.7118 20.5645 45.1647 26.9887 45.1647C32.8177 45.1647 38.3315 42.3396 41.7318 37.5999L42.1508 37.9038C38.6554 42.7698 32.984 45.6786 26.9988 45.6786L27 45.6774Z" fill="white"/>
<path d="M19.1626 46.1701C19.3302 45.6987 19.8217 45.4798 20.3132 45.6574C20.8046 45.835 21.046 46.3064 20.8784 46.7879C20.7108 47.2694 20.2194 47.4782 19.7279 47.3006C19.2364 47.1118 18.995 46.6416 19.1626 46.1701ZM20.5858 46.6729C20.7008 46.349 20.5445 46.0238 20.2306 45.9088C19.9067 45.7937 19.5816 45.94 19.4665 46.2639C19.3515 46.5878 19.5078 46.913 19.8217 47.028C20.1456 47.1531 20.4707 46.9968 20.5858 46.6729Z" fill="white"/>
<path d="M23.7873 48.2936L23.4421 47.582L22.8881 48.136L22.5329 48.0735L23.297 47.3307L22.8468 46.4102L23.192 46.4728L23.5159 47.1418L24.0386 46.6191L24.3738 46.6716L23.6522 47.3732L24.1337 48.3461L23.7885 48.2936H23.7873Z" fill="white"/>
<path d="M26.2672 46.8292H26.5811L26.5598 48.2523L27.439 48.2623V48.5237L26.2359 48.5025L26.2672 46.8279V46.8292Z" fill="white"/>
<path d="M30.4741 47.4882L30.5792 48.2411L30.2965 48.2824L30.2753 48.1248C30.2227 48.2398 30.0864 48.3236 29.8988 48.3549C29.6062 48.3962 29.3961 48.2611 29.3648 48.041C29.3336 47.8321 29.4586 47.6433 29.8463 47.5808L30.1815 47.5395V47.5182C30.1602 47.3407 30.0352 47.2569 29.8263 47.2881C29.68 47.3094 29.5437 47.3819 29.4599 47.4657L29.3136 47.2669C29.4386 47.1418 29.6275 47.058 29.8363 47.0368C30.1815 46.9742 30.4228 47.1206 30.4741 47.487V47.4882ZM30.2227 47.8759L30.2015 47.7296L29.8976 47.7709C29.6987 47.8021 29.6462 47.8859 29.6675 47.9797C29.6775 48.0848 29.7825 48.1473 29.9401 48.126C30.0764 48.1048 30.1915 48.021 30.2227 47.8747V47.8759Z" fill="white"/>
<path d="M33.8957 46.7241C34.0107 47.1118 33.8219 47.4357 33.4667 47.5508C33.2992 47.6033 33.1428 47.592 33.0065 47.4982L33.0591 47.6558L32.7864 47.7396L32.2524 46.0238L32.5451 45.93L32.7439 46.5578C32.8064 46.4115 32.9327 46.3177 33.0891 46.2752C33.4342 46.1814 33.7694 46.349 33.8944 46.7254L33.8957 46.7241ZM33.6031 46.8179C33.5293 46.5878 33.3304 46.4828 33.1216 46.5453C32.9127 46.6078 32.7977 46.8067 32.8702 47.048C32.9428 47.2894 33.1528 47.3832 33.3517 47.3207C33.5605 47.2581 33.6756 47.0593 33.6031 46.8179Z" fill="white"/>
<path d="M35.8841 46.484V46.2226C36.0204 46.2439 36.198 46.2126 36.3443 46.1389C36.5119 46.0551 36.5644 45.9713 36.5219 45.8875C36.4169 45.6674 35.8003 46.2226 35.5702 45.7624C35.4652 45.5423 35.5915 45.3022 35.9054 45.1446C36.0629 45.0709 36.2505 45.0196 36.3868 45.0296V45.291C36.2405 45.281 36.1255 45.3122 36.0104 45.3647C35.8428 45.4485 35.7903 45.5423 35.8328 45.6161C35.9479 45.8462 36.5657 45.2922 36.7845 45.7412C36.8896 45.9613 36.7633 46.2014 36.4394 46.359C36.2405 46.464 36.0204 46.5053 35.8854 46.484H35.8841Z" fill="white"/>
<defs>
<linearGradient id="paint0_linear_3314_11056" x1="54.0014" y1="27.0019" x2="-0.00529212" y2="27.0019" gradientUnits="userSpaceOnUse">
<stop stop-color="white"/>
<stop offset="1" stop-color="white" stop-opacity="0"/>
</linearGradient>
<linearGradient id="paint1_linear_3314_11056" x1="6.3" y1="27" x2="55.35" y2="27" gradientUnits="userSpaceOnUse">
<stop offset="0.4" stop-color="white"/>
<stop offset="0.7" stop-color="white" stop-opacity="0"/>
</linearGradient>
<linearGradient id="paint2_linear_3314_11056" x1="0" y1="26.9963" x2="53.9963" y2="26.9963" gradientUnits="userSpaceOnUse">
<stop offset="0.2" stop-color="white"/>
<stop offset="1" stop-color="white" stop-opacity="0"/>
</linearGradient>
</defs>
</svg>
