<?xml version="1.0" encoding="utf-8"?>
<!-- Generator: Adobe Illustrator 27.2.0, SVG Export Plug-In . SVG Version: 6.00 Build 0)  -->
<svg version="1.1" id="Layer_1" xmlns="http://www.w3.org/2000/svg" xmlns:xlink="http://www.w3.org/1999/xlink" x="0px" y="0px"
	 viewBox="0 0 250 250" style="enable-background:new 0 0 250 250;" xml:space="preserve">
<style type="text/css">
	.st0{fill:url(#SVGID_1_);}
	.st1{fill:url(#SVGID_00000044862101950404824000000012643038209379968411_);}
	.st2{fill:url(#SVGID_00000032641101968184632860000003197604686255389849_);}
	.st3{fill:#FFFFFF;}
</style>
<g>
	<linearGradient id="SVGID_1_" gradientUnits="userSpaceOnUse" x1="229.5231" y1="125.0028" x2="161.3741" y2="125.0028">
		<stop  offset="0" style="stop-color:#FFFFFF"/>
		<stop  offset="1" style="stop-color:#FFFFFF;stop-opacity:0"/>
	</linearGradient>
	<path class="st0" d="M185.7,126.9c-0.5-0.5-0.7-1.1-0.7-1.8c0,1.4-0.6,2.9-1.7,4l-0.3,0.3c0,0,0.1,0.1,0.1,0.1l40.2,40.2h-38.5
		c-0.7,0-1.4-0.3-1.9-0.8l-19-19l-2.6,2.6l19,19c1.2,1.2,2.8,1.8,4.4,1.8h42.5c1.8,0,2.7-2.2,1.4-3.4L185.7,126.9z M185.8,123.3
		l43.2-43.2c1.3-1.3,0.4-3.4-1.4-3.4H185c-1.7,0-3.3,0.7-4.4,1.8l-19.2,19.2l2.6,2.6l19.2-19.2c0.5-0.5,1.2-0.8,1.9-0.8h38.6
		l-39.7,39.8l-0.6,0.6l-0.1,0.1l0.3,0.3c1.1,1.1,1.7,2.5,1.7,4C185,124.5,185.3,123.8,185.8,123.3L185.8,123.3z"/>
	
		<linearGradient id="SVGID_00000177471310426704947470000001428934112087354241_" gradientUnits="userSpaceOnUse" x1="91.84" y1="125" x2="185.0246" y2="125">
		<stop  offset="0" style="stop-color:#FFFFFF"/>
		<stop  offset="1" style="stop-color:#FFFFFF;stop-opacity:0"/>
	</linearGradient>
	<path style="fill:url(#SVGID_00000177471310426704947470000001428934112087354241_);" d="M183.4,129.1L141,171.4
		c-1.2,1.2-2.8,1.8-4.4,1.8H94c-1.8,0-2.7-2.2-1.4-3.4l43-43c1-1,1-2.6,0-3.5L92.4,80.2c-1.3-1.3-0.4-3.4,1.4-3.4h42.5
		c1.7,0,3.3,0.7,4.4,1.8l42.5,42.5C185.6,123.3,185.6,126.9,183.4,129.1z"/>
	
		<linearGradient id="SVGID_00000029038938623799344650000000499266599091295118_" gradientUnits="userSpaceOnUse" x1="20.4741" y1="124.9173" x2="116.8401" y2="124.9173">
		<stop  offset="0" style="stop-color:#FFFFFF"/>
		<stop  offset="1" style="stop-color:#FFFFFF;stop-opacity:0"/>
	</linearGradient>
	<path style="fill:url(#SVGID_00000029038938623799344650000000499266599091295118_);" d="M68.7,80.4c24.6,0,44.5,20,44.5,44.5
		s-20,44.5-44.5,44.5s-44.5-20-44.5-44.5S44.1,80.4,68.7,80.4 M68.7,147.4c12.4,0,22.5-10.1,22.5-22.5c0-12.4-10.1-22.5-22.5-22.5
		c-12.4,0-22.5,10.1-22.5,22.5C46.1,137.3,56.2,147.4,68.7,147.4 M68.7,76.7c-26.6,0-48.2,21.6-48.2,48.2
		c0,26.6,21.6,48.2,48.2,48.2c26.6,0,48.2-21.6,48.2-48.2C116.8,98.3,95.3,76.7,68.7,76.7L68.7,76.7z M68.7,143.8
		c-10.4,0-18.9-8.4-18.9-18.9c0-10.4,8.4-18.9,18.9-18.9s18.9,8.4,18.9,18.9C87.5,135.3,79.1,143.8,68.7,143.8L68.7,143.8z"/>
	<g>
		<path class="st3" d="M57.4,211.3c1.5-2.2,4.3-2.6,6.6-0.9c2.3,1.6,2.8,4.4,1.2,6.6c-1.5,2.2-4.3,2.6-6.6,0.9
			C56.4,216.2,55.9,213.5,57.4,211.3z M63.9,215.9c1.1-1.5,0.7-3.3-0.7-4.4c-1.5-1-3.3-0.8-4.4,0.7c-1.1,1.5-0.7,3.3,0.7,4.4
			C61,217.7,62.8,217.4,63.9,215.9z"/>
		<path class="st3" d="M77.6,228.7l-0.7-4.1l-3.6,2l-1.7-0.8l5-2.7l-0.9-5.3l1.7,0.8l0.7,3.9l3.4-1.9l1.6,0.8l-4.7,2.5l1,5.6
			L77.6,228.7z"/>
		<path class="st3" d="M89.7,229.8c0.6-2,2.5-2.9,4.6-2.3c1.3,0.4,2.1,1.2,2.3,2.4l-1.4,0.3c-0.2-0.7-0.7-1.2-1.4-1.4
			c-1.1-0.3-2.2,0.2-2.6,1.4c-0.4,1.3,0.2,2.3,1.4,2.6c0.6,0.2,1.3,0.1,1.9-0.4l1,1c-0.8,0.8-2,1.1-3.3,0.7
			C90.1,233.6,89.1,231.8,89.7,229.8z"/>
		<path class="st3" d="M113.1,234.5l-0.5,3.9l-1.6-0.2l0.5-3.7c0.2-1.2-0.3-1.9-1.4-2c-1.1-0.2-2,0.4-2.2,1.8l-0.5,3.4l-1.6-0.2
			l1.3-9.4l1.6,0.2l-0.5,3.4c0.6-0.5,1.4-0.7,2.4-0.5C112.3,231.3,113.4,232.4,113.1,234.5z"/>
		<path class="st3" d="M130,234.9l0.1,4l-1.5,0l0-0.8c-0.4,0.6-1.1,0.9-2.1,1c-1.6,0-2.6-0.8-2.6-2c0-1.1,0.7-2,2.8-2.1l1.8,0l0-0.1
			c0-0.9-0.6-1.5-1.7-1.5c-0.8,0-1.6,0.3-2.1,0.7l-0.6-1.2c0.7-0.6,1.8-0.9,2.9-0.9C128.8,232,130,232.9,130,234.9z M128.5,236.8
			l0-0.8l-1.7,0c-1.1,0-1.4,0.4-1.4,0.9c0,0.6,0.5,0.9,1.3,0.9C127.5,237.9,128.2,237.5,128.5,236.8z"/>
		<path class="st3" d="M147.8,232.7l0.7,3.9l-1.6,0.3l-0.7-3.7c-0.2-1.2-0.9-1.7-1.9-1.5c-1.1,0.2-1.8,1-1.5,2.4l0.6,3.4l-1.6,0.3
			l-1.2-6.7l1.5-0.3l0.2,0.9c0.4-0.7,1.2-1.2,2.1-1.4C146.1,230,147.5,230.7,147.8,232.7z"/>
		<path class="st3" d="M164.2,224.8l1.9,5.5c0.8,2.3,0,3.8-2.3,4.6c-1.2,0.4-2.5,0.5-3.5,0.2l0.3-1.4c0.7,0.3,1.8,0.2,2.6-0.1
			c1.4-0.5,1.8-1.4,1.4-2.7l-0.1-0.3c-0.3,0.8-1,1.3-1.9,1.6c-1.8,0.7-3.7-0.1-4.4-2c-0.7-1.9,0.3-3.6,2.1-4.3
			c0.9-0.3,1.8-0.3,2.6,0.1l-0.3-0.9L164.2,224.8z M163.8,228.4c-0.4-1.1-1.5-1.5-2.6-1.1c-1.1,0.4-1.7,1.4-1.3,2.5
			c0.4,1.1,1.5,1.6,2.6,1.1C163.6,230.5,164.2,229.5,163.8,228.4z"/>
		<path class="st3" d="M181.6,220.7l-4.7,2.6c0.6,0.8,1.7,0.9,2.7,0.4c0.7-0.4,1.1-0.9,1.3-1.5l1.2,0.4c-0.2,0.9-0.8,1.7-1.9,2.3
			c-2,1.1-4,0.5-5-1.2c-1-1.8-0.4-3.8,1.4-4.8c1.7-1,3.7-0.4,4.7,1.4C181.4,220.4,181.5,220.5,181.6,220.7z M176.3,222.3l3.4-1.9
			c-0.6-0.8-1.6-1-2.5-0.5C176.3,220.4,176,221.4,176.3,222.3z"/>
		<path class="st3" d="M191.4,209l0.9,1.2c-0.1,0.1-0.2,0.1-0.3,0.2c-1,0.7-1.1,1.8-0.3,2.9l2,2.6l-1.3,1l-4.1-5.4l1.2-0.9l0.6,0.8
			C190,210.5,190.5,209.7,191.4,209z"/>
	</g>
	<g>
		<path class="st3" d="M125,250C56.1,250,0,193.9,0,125C0,56.1,56.1,0,125,0s125,56.1,125,125C250,193.9,193.9,250,125,250z
			 M125,3.7C58.1,3.7,3.7,58.1,3.7,125S58.1,246.3,125,246.3S246.3,191.9,246.3,125S191.9,3.7,125,3.7z"/>
	</g>
	<g>
		<path class="st3" d="M41.4,75.9L39,74.5c17.9-30.4,50.8-49.2,86-49.2c32,0,62.3,15.5,81,41.5l-2.2,1.6C185.6,43.1,156.1,28,125,28
			C90.8,28,58.7,46.4,41.4,75.9z"/>
	</g>
	<g>
		<path class="st3" d="M125,224.7c-35.3,0-68.3-19-86.1-49.5l2.4-1.4C58.6,203.6,90.7,222,125,222c31.1,0,60.6-15.1,78.8-40.4
			l2.2,1.6C187.3,209.2,157,224.7,125,224.7z"/>
	</g>
</g>
</svg>
