<svg width="54" height="54" viewBox="0 0 54 54" fill="none" xmlns="http://www.w3.org/2000/svg">
<path d="M27 54C41.9117 54 54 41.9117 54 27C54 12.0883 41.9117 0 27 0C12.0883 0 0 12.0883 0 27C0 41.9117 12.0883 54 27 54Z" fill="#3D8130"/>
<path d="M16.0418 21.4102L14.8289 23.7727L13.5738 26.2512L12.6879 28.5715L12.0973 31.0395L11.7281 33.7395L11.5066 36.0703L11.2535 37.5996L11.5066 38.7914L11.9391 39.8145L12.7406 41.2277L14.5969 42.3879L15.968 42.9258C16.3055 43.0312 16.6641 43.1367 16.9699 43.2316L18.5941 43.527L20.9145 43.6324H22.834C23.0555 43.6324 24.9961 43.527 25.0066 43.5164L27.4746 43.5586L29.8582 43.2633L30.8918 42.8309L31.5984 41.9871L31.6301 40.8691C31.5879 40.7742 31.4508 40.4156 31.4086 40.2785C31.377 40.1836 30.9023 39.6246 30.4699 39.1395L30.4594 39.1289C30.2695 38.8547 29.9637 38.3801 29.9637 38.2219C29.9637 38.0637 30.1535 37.5996 30.1957 37.5152L30.2168 37.473L31.2082 37.1883L31.8621 37.6629L32.4527 37.3359L33.1172 36.6715L34.2773 35.8172L35.332 35.216L36.1652 35.0578L37.2621 35.8066L37.1883 35.7223L37.6418 35.3215L38.0637 34.6254V33.8977L37.9793 33.6867L37.4414 34.1191L36.4816 34.3934H36.4605L34.984 34.3617L32.843 34.5832L32.168 34.657L31.6512 34.5832L30.2695 34.3934L28.7086 34.098L26.1879 33.6867H26.1773L23.7621 32.6848L21.6422 31.4613L20.3449 30.5859L20.2184 29.9637L20.3871 29.3836L20.9039 29.0039L22.1063 29.2781L24.7324 30.0902C26.0191 30.3539 27.9809 30.7441 28.1074 30.7547C28.1707 30.7547 28.4238 30.7969 29.0566 30.9023C29.7316 31.0078 30.6598 31.166 30.8496 31.166C31.1766 31.166 33.6973 31.3031 33.8449 31.3137C33.982 31.3137 36.0281 31.2715 36.2496 31.2715C36.3973 31.2715 37.1883 31.0078 37.6629 30.8391L38.3801 29.9848L39.0656 28.793C39.1078 28.4449 39.0656 28.0969 38.9391 27.7699C38.7703 27.327 38.4539 26.9473 38.0531 26.6941C37.8422 27.0949 37.568 27.348 37.2516 27.4641C37.1355 27.5062 36.9984 27.5273 36.8719 27.5273C36.682 27.5273 36.4922 27.4852 36.334 27.4008L36.4395 27.2109C36.6715 27.327 36.9352 27.348 37.1883 27.2637C37.473 27.1582 37.7156 26.9051 37.9055 26.5148C37.6734 26.5992 37.4203 26.652 37.1672 26.652C37.009 26.652 36.8508 26.6414 36.6926 26.5992L36.7348 26.3883C36.7453 26.3883 37.5574 26.5887 38.1691 26.1141C38.6016 25.7871 38.8441 25.1965 38.8863 24.3844L38.1797 25.2176L37.3254 25.6078C36.9457 25.7027 35.6801 26.0191 35.5641 26.0191C35.5219 26.0191 35.3531 25.998 34.9418 25.9242C34.425 25.8398 33.6551 25.7238 33.4547 25.7238C33.0961 25.7238 32.5898 25.3336 32.5371 25.2914L32.4738 25.2492L32.8746 24.0785L33.982 22.8234L35.1527 21.9902H36.6082L37.9793 22.1379L38.5699 22.8129L38.8547 23.2348V22.0957L37.7156 21.6844C37.5891 21.6633 36.4605 21.5051 36.1863 21.5051C35.9227 21.5051 34.9102 21.6633 34.7414 21.6844L33.2754 22.6336L33.1594 22.4543L34.657 21.484H34.6781C34.7309 21.4734 35.8699 21.2941 36.1758 21.2941C36.4711 21.2941 37.6945 21.4734 37.7473 21.484L37.7684 21.4945L39.0023 21.948L39.1184 22.0113L39.1289 21.927L38.5488 21.4207L37.5047 20.9145L36.2391 20.809L34.7836 21.0621L34.2035 21.3152L34.1191 21.1148L34.7309 20.8512L36.2285 20.5875L37.5574 20.7035L37.6102 20.7352L37.2094 20.1129L36.0809 19.1215L36.0914 19.1109L31.7039 19.2375C31.7039 19.2375 31.1344 19.3113 30.4805 19.3957L31.1027 20.2922L31.4191 20.8512L31.2609 21.4102L31.05 21.3469L31.1871 20.8723L30.9129 20.3977L30.2484 19.4379L30.2906 19.4062C29.468 19.5117 28.5926 19.6172 28.5398 19.6172C28.4449 19.6172 24.9223 19.8809 24.7746 19.8809C24.4793 19.8598 24.184 19.8281 23.8992 19.7648C23.8465 19.7332 21.4945 18.8789 21.4102 18.8262C21.3258 18.7734 20.5031 17.9824 20.5031 17.9824L18.9 17.4867L17.4973 19.2164L16.0418 21.4102ZM33.1594 26.2512C33.3703 26.3461 33.5602 26.4621 33.7605 26.5781L34.9629 26.7152L35.6484 26.5676L35.6906 26.7785L34.9734 26.9262L34.1402 26.8312C34.4988 27.0949 34.8258 27.3902 35.1211 27.7277C35.332 27.9703 35.5219 28.234 35.6801 28.5082L35.4902 28.6137C35.3004 28.2973 35.0789 27.9914 34.8152 27.7277C34.4672 27.3691 34.077 27.0422 33.6551 26.7785L33.0434 26.4305L33.1594 26.2512ZM21.1043 22.3066L22.0641 21.3891L22.8973 20.7035L24.0891 20.4715L25.3441 20.4293H26.6836L27.791 20.4715L30.0375 20.5137L30.7441 20.9461L31.609 21.7371L32.1047 22.3488L32.3367 23.5934L32.1258 23.6355L31.9043 22.4438L31.4508 21.8742L30.6176 21.1148L29.9848 20.7246L28.2234 20.693L28.9934 21.1148C29.4047 21.3258 30.1113 21.7055 30.1852 21.8637C30.2379 21.948 30.7969 22.4965 31.3137 22.9816L31.3242 22.9922L32.1152 24.0152L32.2313 24.859L32.0203 24.8906L31.9148 24.1102L31.166 23.1398C30.9023 22.8973 30.0797 22.1168 30.0059 21.9691C29.9426 21.8848 29.3941 21.5684 28.909 21.3152L27.7805 20.693L26.6941 20.6613H25.3652L24.1207 20.693L23.0133 20.9039L22.2223 21.5473L21.3258 22.4121L21.2309 22.9816L21.4207 23.1504L21.8953 22.8973L22.6758 21.927L24.0891 21.3891L25.9242 21.1992L27.4746 21.3469L29.4891 22.391L30.3223 22.8867L31.1238 23.952L31.493 25.1121L32.0309 25.4602V25.9348L31.5352 26.3883L30.6492 26.7574L30.2695 27.0738L29.6684 28.0547L29.6473 28.0652C29.3836 28.2023 28.9195 28.4449 28.793 28.4449C28.698 28.466 28.1074 28.7297 27.5801 28.9934L27.5273 29.0039C27.4852 29.0145 26.557 29.2992 26.325 29.3414L26.2934 29.1305C26.4938 29.0988 27.3691 28.8352 27.4535 28.8035C27.9809 28.5504 28.6348 28.2445 28.7508 28.2445C29.0039 28.1496 29.2465 28.0336 29.4891 27.8965L29.584 27.7383L30.0691 26.9473L30.1852 26.8523C29.8477 26.8207 29.4047 26.768 29.2887 26.7047C29.2359 26.6836 28.9195 26.6414 27.2637 26.6414C26.8523 26.6414 25.882 26.4199 25.7449 26.3777C25.6395 26.3461 24.648 26.0508 24.6375 26.0508L24.6164 26.0402L24.5953 26.0191C24.5848 26.0086 23.6672 25.1332 22.9922 24.743L23.0977 24.5531C23.7516 24.9328 24.5848 25.7133 24.7324 25.8504C24.8906 25.8926 25.7133 26.1457 25.8188 26.1773C25.9348 26.2195 26.884 26.4305 27.2637 26.4305C29.257 26.4305 29.3414 26.4832 29.3941 26.5254C29.468 26.5676 29.9426 26.6203 30.3434 26.652L30.3328 26.7258L30.491 26.5887L31.377 26.2195L31.7672 25.8609V25.5973L31.493 25.418L31.5035 25.4496L30.5859 25.7871L29.3203 25.9348C29.257 25.9348 28.9828 25.9453 28.677 25.9453C28.3184 25.9453 27.9281 25.9348 27.8121 25.8926C27.6434 25.8398 26.5781 25.6078 26.0508 25.4918H26.0402L26.0297 25.4813C25.3652 25.1227 24.5426 24.6691 24.4793 24.5531C24.4266 24.4898 24.0152 24.2789 23.6672 24.1102H23.6566L22.4859 23.4246L22.3277 23.4562L22.3066 23.3191L21.9375 23.1082L21.368 23.4141L20.9672 23.066L21.1043 22.3066ZM21.5895 27.3586L21.6422 27.5695L20.5664 27.8227L20.5453 27.7383L20.5137 27.6117L21.5895 27.3586ZM22.043 28.3605L21.9902 28.5715C21.7477 28.5187 21.4945 28.5293 21.252 28.5715C20.8512 28.6453 20.2605 28.8773 19.691 29.5312L19.5328 29.3941C20.7035 28.023 21.9902 28.3395 22.043 28.3605Z" fill="#3D8130"/>
<path d="M23.4879 23.0238C23.5512 23.0133 25.0488 22.834 25.2387 22.834C25.3125 22.834 25.5234 22.8551 25.7977 22.8762C26.1668 22.9078 26.7891 22.9605 26.884 22.95C27.0316 22.9078 28.5082 22.7813 28.677 22.7602L29.5523 22.6969L29.373 22.5914L27.4008 21.5684L25.9137 21.4207L24.1207 21.6L22.7918 22.1063L22.1168 22.95L22.5492 23.2031L23.4879 23.0238Z" fill="#3D8130"/>
<path d="M28.6875 22.9816C28.0336 23.0449 27.0316 23.1398 26.9262 23.1609C26.8313 23.182 26.4937 23.1609 25.7766 23.0977C25.534 23.0766 25.302 23.0555 25.2387 23.0555C25.091 23.0555 23.952 23.1926 23.5195 23.2348L22.8234 23.3613L23.7727 23.9203C24.068 24.0574 24.5742 24.3105 24.6586 24.4371C24.743 24.5215 25.4602 24.9328 26.1246 25.2914C26.2934 25.323 27.6855 25.6289 27.8965 25.7027C28.0441 25.7555 28.8563 25.7449 29.3309 25.7344L30.5754 25.5867L31.3242 25.302L31.282 25.2809L30.9023 24.0785L30.1535 23.0766L29.7105 22.8129L29.7211 22.9184L28.6875 22.9816Z" fill="#3D8130"/>
<path d="M38.4328 22.8973L37.9055 22.3066L36.6188 22.159H35.2477L34.1402 22.95L33.0855 24.1418L32.748 25.1227C32.9168 25.2492 33.2543 25.4602 33.4758 25.4602C33.6973 25.4602 34.4145 25.5762 34.9945 25.6711C35.2687 25.7133 35.543 25.7555 35.5852 25.7555C35.6801 25.7449 36.6715 25.5023 37.2832 25.3547L38.0637 24.9961L38.6859 24.2789L38.6332 23.9414L36.7137 23.1609L34.2562 23.0871L34.2668 22.8762L36.7664 22.95L38.8336 23.7938L38.918 24.3316C38.918 24.3 38.918 24.2684 38.918 24.2367V23.6461L38.4328 22.8973Z" fill="#3D8130"/>
<path d="M36.1336 35.2687L35.4164 35.4059L34.4039 35.9859L33.2648 36.8297L32.9484 37.1461L33.6656 37.6523L33.7184 38.0531L33.2332 38.5383L33.0855 38.3906L33.4969 37.9793L33.4758 37.7789L32.8008 37.3043L32.6004 37.5047L32.1785 37.7367L32.0625 38.3063L32.6531 38.823L33.5074 38.7914C33.6656 38.6754 33.9293 38.5066 34.0559 38.4961C34.1824 38.4223 34.309 38.3379 34.425 38.243C34.7098 38.0215 34.8258 37.9477 34.9102 37.9477C35.1633 37.8211 35.4059 37.684 35.6379 37.5258L35.6695 37.5047L36.7031 37.6207L37.0617 37.9793L36.9879 38.0531C36.7664 38.2957 36.5133 38.6121 36.5027 38.6859C36.5027 38.7387 36.4922 38.7914 36.4711 38.8336L36.7137 38.6965L37.8527 37.8844L37.9793 38.0637L36.8191 38.8863L36.2812 39.1816C36.2602 39.2133 36.2391 39.2449 36.2285 39.2555L36.1863 39.2238L35.3637 39.6773L34.7941 40.5L34.5938 40.9852L35.0051 41.5652L35.4586 42.082L35.9965 42.1453L36.4922 42.0398L36.4816 41.9344L37.0301 41.0695L38.0637 40.0676L38.2113 40.2258L37.1883 41.2172L36.6926 41.9871L36.7242 42.5672L37.2516 42.9258L37.9477 42.9996L38.3379 42.8836L38.2641 42.7676L38.3168 42.7043C38.3379 42.6727 38.9074 42.0293 39.0234 41.9238C39.1078 41.8395 39.593 41.2805 39.8355 41.0062L39.9938 41.1434C39.9621 41.175 39.2871 41.966 39.1711 42.0715C39.0867 42.1559 38.6754 42.6094 38.5277 42.7781L38.8969 43.3266H39.5191L40.057 43.084L40.5 42.4301L41.0906 41.7973L41.2488 41.9449L40.6582 42.5672L40.2047 43.2527L39.5613 43.5375H38.7809L38.4539 43.0523L37.9582 43.2L37.1672 43.1262L36.5133 42.6727L36.4922 42.2508L35.9965 42.3563L35.3426 42.2719L34.8469 41.7023L34.1086 41.2594L33.3387 40.4051L33.1488 39.0762L33.3598 39.0445L33.518 40.1836L34.4355 39.4559L35.427 38.5066L35.9965 37.7262L35.7223 37.6945C35.4164 37.8949 35.0578 38.1164 34.9313 38.1375C34.8047 38.2113 34.6781 38.2957 34.5621 38.3906C34.2668 38.6121 34.1508 38.6859 34.077 38.6859C33.9188 38.7598 33.7605 38.8547 33.6234 38.9602L33.5918 38.9813L32.5898 39.0234L31.841 38.359L31.9465 37.8527L31.8727 37.8949L31.1977 37.4098L30.4066 37.6418C30.3223 37.8316 30.259 38.0215 30.2168 38.2219C30.2273 38.3062 30.4594 38.6965 30.6703 39.0023C30.9551 39.3187 31.609 40.0676 31.6512 40.2258C31.6828 40.3418 31.8199 40.6793 31.8727 40.8059L31.8832 40.827L31.8516 42.2613L32.2629 42.873C32.4738 42.9996 34.0242 43.9066 34.2035 44.0121C34.3301 44.0859 35.448 44.4023 36.1336 44.5922L38.4434 44.8137L40.2996 44.5605L41.8922 43.8328L42.757 42.9996L42.5566 42.2613L41.4914 40.2785L40.7215 39.1078L39.382 37.6523L37.4098 36.566L37.1145 35.9332L36.1336 35.2687Z" fill="#3D8130"/>
<path d="M37.8105 30.9973L37.7789 31.0078C37.568 31.0816 36.4922 31.4613 36.2602 31.4613C36.0387 31.4613 33.8766 31.493 33.8555 31.5035C33.8238 31.5035 31.1871 31.3559 30.8602 31.3559C30.6492 31.3559 29.7949 31.2187 29.0355 31.0922C28.6137 31.0184 28.1813 30.9551 28.118 30.9551C27.9703 30.9551 25.2387 30.3961 24.6902 30.2906H24.6797L22.0535 29.4785L20.9566 29.2359L20.577 29.5207L20.4504 29.9742L20.5453 30.4594L21.7687 31.282L23.8676 32.4949L26.2512 33.4863L28.7508 33.8871L30.3117 34.1824L32.1785 34.4355L34.984 34.1402H34.9945L36.4605 34.1719L37.3465 33.9188L38.0953 33.3176L38.707 32.3789L38.8441 31.9465L38.6437 31.4613C37.7578 32.2629 37.6629 32.2945 37.6102 32.3051L36.7031 32.5266L34.1824 32.6426H34.1719L31.5352 32.4949L28.9195 32.0203L26.8102 32.0625H26.7996L24.6059 31.5035L22.6652 30.8285L21.6316 30.1957L21.7477 30.0164L22.7707 30.6387L24.6797 31.3031L26.8418 31.8516L28.9512 31.8094H28.9617L31.5773 32.284L34.193 32.4316L36.6926 32.3262L37.568 32.1047C37.6207 32.0836 37.916 31.8516 38.5383 31.282C38.6227 31.2082 38.6754 31.1555 38.6965 31.1344L39.498 30.0375L39.7723 29.5207C39.7301 29.3414 39.6879 29.1727 39.6668 28.9934C39.5613 28.8246 39.4453 28.677 39.3082 28.5293C39.3082 28.6242 39.3082 28.7191 39.2871 28.8141V28.8352L38.5594 30.0902L37.8105 30.9973Z" fill="#983B1F"/>
<path d="M42.7254 42.1875L41.6496 40.1836L40.8691 38.9918L39.5191 37.4836L37.568 36.4184L37.2832 35.8066L37.2305 35.8383C37.2305 35.8383 37.4098 36.4922 37.5363 36.5555C37.6629 36.6188 39.3504 37.4836 39.4348 37.5258C39.5191 37.568 40.9852 39.3187 40.9852 39.3187L42.1664 41.3754L42.873 42.9574C42.873 42.9574 41.966 43.8855 41.9133 43.8961C41.8605 43.9066 40.1098 44.7609 40.057 44.7609C40.0043 44.7609 38.3062 44.9508 38.2113 44.9297C38.1164 44.898 36.0281 44.7187 35.8699 44.7082C35.7012 44.6977 33.7711 43.9277 33.7711 43.9277L32.1047 42.9258L31.6301 42.1875L30.9656 42.9363C30.9656 42.9363 30.027 43.4109 29.9004 43.4109C29.7738 43.4109 27.4746 43.7168 27.2953 43.7168H22.6652C22.6652 43.7168 18.0879 43.6324 17.8875 43.5375C17.8242 43.5059 17.4551 43.3898 16.9699 43.2316L16.5797 43.1578L15.968 42.9258C15.2191 42.6937 14.5441 42.4934 14.5441 42.4934L12.6562 41.2699C12.6562 41.2699 11.8652 39.8988 11.8336 39.825C11.802 39.7512 11.3168 38.6016 11.3168 38.5488C11.3168 38.4961 11.148 37.5785 11.148 37.5785L11.4855 35.4797L11.6332 33.2754L11.9918 30.8707C11.9918 30.8707 12.593 28.4555 12.6035 28.35C12.6141 28.234 13.5844 25.8504 13.5844 25.8504L14.6074 24.0047L15.9574 21.2203L17.4445 19.1215L18.8895 17.4023L18.9844 17.434L18.8156 17.2969L17.4129 19.0371L15.852 21.3047L14.6285 23.6883L13.3734 26.1562L12.477 28.4977L11.8758 30.9867L11.5066 33.7078L11.2852 36.0387L11.0215 37.6102L11.2852 38.8547L11.7387 39.9094L12.5719 41.3859L14.4809 42.5883L16.4953 43.3793L18.552 43.759L20.9039 43.875H22.8234C23.0449 43.875 24.8906 43.7695 25.0066 43.759L27.4852 43.8012H27.4957L29.9109 43.5059H29.9215L31.0289 43.0418L31.5984 42.3563L32.073 43.0629L32.0941 43.0734C32.1152 43.084 33.8766 44.107 34.0559 44.223C34.2457 44.3391 35.8594 44.782 36.0492 44.8242L38.4117 45.0457L40.3102 44.782H40.3207L41.966 44.0332L41.9871 44.0227L42.968 43.0734L42.7254 42.1875Z" fill="black"/>
<path d="M17.4445 19.1215L15.9574 21.2203L14.6074 24.0047L13.5844 25.8504C13.5844 25.8504 12.6141 28.234 12.6035 28.35C12.593 28.466 11.9918 30.8707 11.9918 30.8707L11.6332 33.2754L11.4855 35.4797L11.148 37.5785C11.148 37.5785 11.3168 38.4961 11.3168 38.5488C11.3168 38.6016 11.802 39.7512 11.8336 39.825C11.8652 39.8988 12.6562 41.2699 12.6562 41.2699L14.5441 42.4934C14.5441 42.4934 15.2191 42.6937 15.968 42.9258L14.5969 42.3879L12.7406 41.2277L11.9391 39.8145L11.5066 38.7914L11.2535 37.5996L11.5066 36.0703L11.7281 33.7395L12.0973 31.0395L12.6879 28.5715L13.5738 26.2512L14.8289 23.7727L16.0418 21.4102L17.5922 19.1637L18.9949 17.434L18.9 17.4023L17.4445 19.1215Z" fill="black"/>
<path d="M36.1758 35.0473L35.3426 35.2055L34.2879 35.8066L33.1277 36.6609L32.4633 37.3254L31.8727 37.6523L31.2188 37.1777L30.2273 37.4625L30.2062 37.5047C30.1641 37.5996 29.9742 38.0531 29.9742 38.2113C29.9742 38.3695 30.2906 38.8547 30.4699 39.1184L30.4805 39.1289C30.9129 39.6141 31.3875 40.173 31.4191 40.268C31.4508 40.4051 31.5984 40.7637 31.6406 40.8586L31.609 41.9766L30.9023 42.8203L29.8688 43.2527L27.4852 43.548L25.0172 43.5059C24.9961 43.5059 23.0555 43.6219 22.8445 43.6219H20.925L18.6047 43.5164L16.9805 43.2211C17.4551 43.3687 17.8348 43.4953 17.898 43.527C18.0879 43.6219 22.6758 43.7062 22.6758 43.7062H27.3059C27.4852 43.7062 29.7949 43.4004 29.9109 43.4004C30.0375 43.4004 30.9762 42.9258 30.9762 42.9258L31.6406 42.177L32.1152 42.9152L33.7816 43.9172C33.7816 43.9172 35.7117 44.6766 35.8805 44.6977C36.0492 44.7082 38.127 44.8875 38.2219 44.9191C38.3168 44.9508 40.0148 44.7504 40.0676 44.7504C40.1203 44.7504 41.8711 43.9066 41.9238 43.8855C41.9766 43.875 42.8836 42.9469 42.8836 42.9469L42.177 41.3648L40.9957 39.3082C40.9957 39.3082 39.5297 37.5574 39.4453 37.5152C39.3609 37.473 37.6734 36.6082 37.5469 36.5449C37.4203 36.4816 37.241 35.8277 37.241 35.8277L37.2938 35.7961V35.7855L36.1758 35.0473ZM37.3992 36.566L39.3715 37.6523L40.6898 39.1078L41.4598 40.2785L42.525 42.2613L42.7254 42.9996L41.8605 43.8328L40.268 44.5605L38.4117 44.8137L36.102 44.5922C35.4164 44.4023 34.2984 44.0859 34.1719 44.0121C33.9926 43.9066 32.4422 42.9996 32.2313 42.873L31.8199 42.2613L31.8516 40.827V40.8164C31.7988 40.6898 31.6617 40.3523 31.6301 40.2363C31.5879 40.0781 30.934 39.3293 30.6492 39.0129C30.4383 38.6965 30.1957 38.3062 30.1957 38.2324C30.2379 38.032 30.3012 37.8422 30.3855 37.6523L31.1766 37.4203L31.8516 37.9055L31.9254 37.8633L31.8199 38.3695L32.5687 39.034L33.5707 38.9918L33.6023 38.9707C33.7395 38.8652 33.8977 38.7703 34.0559 38.6965C34.1402 38.6965 34.2457 38.6227 34.541 38.4012C34.657 38.3063 34.7836 38.2219 34.9102 38.148C35.0367 38.1375 35.4059 37.9055 35.7012 37.7051L35.9754 37.7367L35.4059 38.5172L34.4145 39.4664L33.4969 40.1941L33.3387 39.0551L33.1277 39.0867L33.3176 40.4156L34.0875 41.2699L34.8258 41.7129L35.3215 42.2824L35.9754 42.3668L36.4711 42.2613L36.4922 42.6832L37.1461 43.1367L37.9371 43.2105L38.4328 43.0629L38.7598 43.548H39.5402L40.1836 43.2633L40.6371 42.5777L41.2277 41.9555L41.0695 41.8078L40.4789 42.4406L40.0359 43.0945L39.498 43.3371H38.8758L38.5066 42.7887C38.6543 42.6199 39.0656 42.1664 39.15 42.082C39.266 41.966 39.941 41.1855 39.9727 41.1539L39.8145 41.0168C39.5719 41.3016 39.0867 41.85 39.0023 41.9344C38.8863 42.0504 38.3168 42.6937 38.2957 42.7148L38.243 42.7781L38.3168 42.8941L37.9266 43.0102L37.2305 42.9363L36.7031 42.5777L36.6715 41.9977L37.1672 41.2277L38.1902 40.2363L38.0426 40.0781L37.009 41.0801L36.4605 41.9449L36.4711 42.0504L35.9754 42.1559L35.4375 42.0926L34.984 41.5758L34.5727 40.9957L34.773 40.5105L35.3426 39.6879L36.1652 39.2344L36.2074 39.266C36.218 39.2449 36.2391 39.2238 36.2602 39.1922L36.798 38.8969L37.9582 38.0742L37.8316 37.8949L36.6926 38.707L36.45 38.8441C36.4711 38.802 36.4816 38.7492 36.4816 38.6965C36.4922 38.6121 36.7453 38.3062 36.9668 38.0637L37.0406 37.9898L36.682 37.6312L35.6484 37.5152L35.6168 37.5363C35.3848 37.6945 35.1422 37.8422 34.8891 37.9582C34.8047 37.9582 34.6887 38.0426 34.4039 38.2535C34.2879 38.3484 34.1613 38.4328 34.0348 38.5066C33.9082 38.5172 33.6551 38.6859 33.4863 38.802L32.632 38.8336L32.0414 38.3168L32.1574 37.7473L32.5793 37.5152L32.7797 37.3148L33.4547 37.7895L33.4758 37.9898L33.0645 38.4012L33.2121 38.5488L33.6973 38.0637L33.6445 37.6629L32.9273 37.1566L33.2438 36.8402L34.3828 35.9965L35.3953 35.4164L36.1125 35.2793L37.0828 35.9437L37.3992 36.566ZM34.5094 41.2805L34.2246 41.1117L33.5918 40.4156L34.5621 39.6562L35.5641 38.6859L36.218 37.7789L36.5871 37.8211L36.7453 37.9793C36.5449 38.2008 36.2707 38.5277 36.2707 38.6754C36.2391 38.802 36.1758 38.918 36.102 39.0129L35.1844 39.5191L34.5727 40.3945L34.3195 41.0273L34.5094 41.2805Z" fill="black"/>
<path d="M37.0934 19.7859L37.6312 20.4926C37.6312 20.4926 37.8949 20.9039 37.9898 20.9355C38.0848 20.9672 38.9602 21.4734 38.9602 21.4734L39.3187 21.8742L39.2449 22.1063L38.9707 22.0219L39.0129 23.3824H39.0973V22.159L39.3398 22.2961L39.4031 21.7793L38.7176 21.1781L37.9793 20.8195L38.0109 20.7984L37.4414 19.902L36.2918 18.8895L36.1652 19.0371H36.2812L37.0934 19.7859Z" fill="black"/>
<path d="M38.8863 25.3441C38.8863 25.3441 38.4961 26.1246 38.4539 26.1457C38.4117 26.1773 38.0637 26.325 38.0637 26.325L38.0953 26.5148C38.2535 26.6309 38.4117 26.7574 38.5488 26.8945C38.5699 26.9262 38.802 27.3902 38.9918 27.7383H39.1816C39.0023 27.2109 38.6437 26.7574 38.1691 26.4727C38.1902 26.4305 38.2113 26.3777 38.2324 26.3355C38.2641 26.3145 38.3062 26.2934 38.3379 26.2617C38.8547 25.8715 39.1184 25.1965 39.15 24.2473V23.5828L39.0234 23.393L39.0551 24.416L38.8863 25.3441Z" fill="black"/>
<path d="M37.2832 20.0602L37.684 20.6824L37.6312 20.6508L36.3023 20.5348L34.8047 20.7984L34.193 21.0621L34.2773 21.2625L34.8574 21.0094L36.3129 20.7563L37.5785 20.8617L38.6227 21.368L39.2027 21.8742L39.1922 21.9586L39.0762 21.8953L37.8422 21.4418L37.8211 21.4312C37.7684 21.4207 36.5555 21.2414 36.2496 21.2414C35.9438 21.2414 34.8047 21.4207 34.752 21.4312H34.7309L33.2332 22.4016L33.3492 22.5809L34.8152 21.6316C34.984 21.6105 35.9965 21.4523 36.2602 21.4523C36.5344 21.4523 37.6629 21.6211 37.7895 21.6316L38.9285 22.043V23.2031L38.6437 22.7812L38.0531 22.1063L36.682 21.9586H35.2266L34.0559 22.7918L32.9484 24.0469L32.5477 25.2176L32.6109 25.2598C32.6637 25.302 33.1699 25.6922 33.5285 25.6922C33.7289 25.6922 34.5094 25.8188 35.0156 25.8926C35.427 25.9559 35.5957 25.9875 35.6379 25.9875C35.7539 25.9875 37.0195 25.6711 37.3992 25.5762L38.2535 25.1859L38.9602 24.3527C38.918 25.1648 38.6754 25.7555 38.243 26.0824C37.6207 26.557 36.8086 26.3566 36.8086 26.3566L36.7664 26.5676C36.9246 26.5992 37.0828 26.6203 37.241 26.6203C37.4941 26.6203 37.7473 26.5781 37.9793 26.4832C37.7895 26.8734 37.5469 27.1266 37.2621 27.232C37.0195 27.3164 36.7453 27.2953 36.5133 27.1793L36.4078 27.3691C36.5766 27.4535 36.7664 27.4957 36.9457 27.4957C37.0723 27.4957 37.1988 27.4746 37.3254 27.4324C37.6418 27.3164 37.9055 27.0633 38.127 26.6625C38.5277 26.9156 38.8441 27.2953 39.0129 27.7383H39.0445C38.8652 27.3902 38.6227 26.9262 38.6016 26.8945C38.4539 26.7574 38.3063 26.6309 38.148 26.5148L38.1164 26.325C38.1164 26.325 38.4645 26.1773 38.5066 26.1457C38.5488 26.1141 38.9391 25.3441 38.9391 25.3441L39.1078 24.4266L39.034 22.043L39.3082 22.1273L39.382 21.8953L39.0234 21.4945C39.0234 21.4945 38.148 20.9777 38.0531 20.9566C37.9582 20.925 37.6945 20.5137 37.6945 20.5137L37.1566 19.807L36.334 19.0688H36.218L36.2074 19.0793L37.2832 20.0602ZM38.9285 24.3316L38.8441 23.7938L36.777 22.95L34.2773 22.8762L34.2668 23.0871L36.7242 23.1609L38.6437 23.9414L38.6965 24.2789L38.0742 24.9961L37.2938 25.3547C36.682 25.5023 35.6906 25.7449 35.5957 25.7555C35.5535 25.7555 35.2793 25.7133 35.0051 25.6711C34.425 25.5762 33.7078 25.4602 33.4863 25.4602C33.2754 25.4602 32.9379 25.2492 32.7586 25.1227L33.0961 24.1418L34.1508 22.95L35.2582 22.159H36.6293L37.916 22.3066L38.4434 22.8973L38.9391 23.6461V24.2367C38.9285 24.2684 38.9285 24.3 38.9285 24.3316Z" fill="black"/>
<path d="M32.1891 34.6359L32.8641 34.5621H31.6723L32.1891 34.6359Z" fill="black"/>
<path d="M38.1902 34.6043C38.1586 34.657 37.5469 35.6484 37.5469 35.6484L37.2727 35.7961L37.3359 35.8699L37.8211 35.448L38.2852 34.6676V34.5621H38.1902C38.2008 34.5832 38.2008 34.5938 38.1902 34.6043Z" fill="black"/>
<path d="M38.1902 34.6043C38.1902 34.5938 38.2008 34.5727 38.2008 34.5621H38.0848V34.6043L37.6629 35.3004L37.2094 35.7012L37.2832 35.7855L37.2938 35.7961L37.568 35.6484C37.5574 35.6484 38.1691 34.6676 38.1902 34.6043Z" fill="black"/>
<path d="M39.2027 28.1391L39.2977 28.2762C39.2766 28.0969 39.2449 27.9176 39.1816 27.7383H38.9918C39.1078 27.9598 39.2027 28.1391 39.2027 28.1391Z" fill="black"/>
<path d="M39.8883 29.3203C39.8777 29.373 39.7512 29.7949 39.7195 29.8582C39.6879 29.932 38.6965 31.2926 38.6965 31.2926L38.9285 31.7672C38.9285 31.7672 38.9707 32.1047 38.9391 32.1574C38.9074 32.2102 38.032 33.5707 38.032 33.5707L38.1691 33.9504C38.1691 33.9504 38.2008 34.425 38.1902 34.5727H38.2852V33.8449L38.1691 33.5285L38.2641 33.4547L38.9074 32.4633L39.0762 31.9254L38.823 31.3031C38.8441 31.282 38.8547 31.2715 38.8547 31.2715L39.6773 30.143L40.0043 29.5418L39.9938 29.4996C39.9516 29.3309 39.9094 29.1516 39.8883 28.9723C39.8883 28.9301 39.8883 28.8141 39.3398 28.234L39.2977 28.2762L39.6246 28.7402C39.6246 28.7402 39.8988 29.2676 39.8883 29.3203Z" fill="black"/>
<path d="M38.9918 27.7383H38.9602C39.0867 28.0652 39.1289 28.4133 39.0867 28.7613L38.3906 29.9531L37.6734 30.8074C37.1883 30.9762 36.3973 31.2398 36.2602 31.2398C36.0387 31.2398 33.9926 31.2715 33.8555 31.282C33.6973 31.2715 31.1871 31.1344 30.8602 31.1344C30.6703 31.1344 29.7422 30.9867 29.0672 30.8707C28.4449 30.7652 28.1813 30.723 28.118 30.723C27.9809 30.7125 26.0297 30.3223 24.743 30.0586L22.1168 29.2465L20.9145 28.9723L20.3977 29.352L20.2289 29.932L20.3555 30.5543L21.6527 31.4297L23.7727 32.6531L26.1879 33.6551H26.1984L28.7191 34.0664L30.2801 34.3617L31.6617 34.5516H32.8641L35.0051 34.3301L36.4816 34.3617H36.5027L37.4625 34.0875L38.0004 33.6551L38.0848 33.866V34.5516H38.2008C38.2113 34.4039 38.1797 33.9293 38.1797 33.9293L38.0426 33.5496C38.0426 33.5496 38.918 32.1891 38.9496 32.1363C38.9812 32.0836 38.9391 31.7461 38.9391 31.7461L38.707 31.2715C38.707 31.2715 39.709 29.9109 39.7301 29.8371C39.7617 29.7633 39.8777 29.352 39.8988 29.2992C39.9094 29.2465 39.6352 28.7191 39.6352 28.7191L39.3082 28.2551L39.2133 28.118C39.2027 28.1391 39.1078 27.9598 38.9918 27.7383ZM39.2977 28.8141C39.3082 28.7191 39.3187 28.6242 39.3187 28.5293C39.4559 28.6664 39.5719 28.8246 39.6773 28.9934C39.6984 29.1727 39.7301 29.352 39.7828 29.5207L39.5086 30.0375L38.707 31.1344C38.6859 31.1555 38.6227 31.2082 38.5488 31.282C37.9266 31.8516 37.6418 32.073 37.5785 32.1047L36.7031 32.3262L34.2035 32.4316L31.5879 32.284L28.9723 31.8094H28.9617L26.8523 31.8516L24.6902 31.3031L22.7812 30.6387L21.7582 30.0164L21.6422 30.1957L22.6758 30.8285L24.6164 31.5035L26.8102 32.0625H26.8207L28.9301 32.0203L31.5457 32.4949L34.1824 32.6426H34.193L36.7137 32.5266L37.6207 32.3051C37.6629 32.2945 37.7684 32.2629 38.6543 31.4613L38.8547 31.9465L38.7176 32.3789L38.1059 33.3176L37.357 33.9188L36.4711 34.1719L35.0051 34.1402H34.9945L32.1891 34.4355L30.3223 34.1824L28.7613 33.8871L26.2617 33.4863L23.8781 32.4949L21.7793 31.282L20.5559 30.4594L20.4609 29.9742L20.5875 29.5207L20.9672 29.2359L22.0641 29.4785L24.6902 30.2906H24.7008C25.2492 30.4066 27.9703 30.9551 28.1285 30.9551C28.1813 30.9551 28.6242 31.0289 29.0461 31.0922C29.8055 31.2187 30.6598 31.3559 30.8707 31.3559C31.1977 31.3559 33.8344 31.5035 33.866 31.5035C33.8871 31.5035 36.0492 31.4613 36.2707 31.4613C36.5027 31.4613 37.5785 31.0816 37.7895 31.0078L37.8211 30.9973L38.5805 30.0902L39.3082 28.8352L39.2977 28.8141Z" fill="black"/>
<path d="M21.252 28.5715C21.4945 28.5187 21.7477 28.5187 21.9902 28.5715L22.043 28.3605C21.9902 28.35 20.7035 28.023 19.5328 29.3941L19.691 29.5312C20.2605 28.8668 20.8512 28.6453 21.252 28.5715Z" fill="black"/>
<path d="M20.9145 27.7383L21.6316 27.5695L21.5895 27.3586L20.5137 27.6117L20.5453 27.7383H20.9145Z" fill="black"/>
<path d="M20.5664 27.8227L20.9145 27.7383H20.5453L20.5664 27.8227Z" fill="black"/>
<path d="M33.6762 26.7891C34.098 27.0633 34.4883 27.3797 34.8363 27.7383H35.1316C34.8363 27.4008 34.5094 27.1055 34.1508 26.8418L34.984 26.9367L35.7012 26.7891L35.659 26.5781L34.9734 26.7258L33.7711 26.5887C33.5813 26.4621 33.3809 26.3566 33.1699 26.2617L33.075 26.4516L33.6762 26.7891Z" fill="black"/>
<path d="M35.5008 28.6242L35.6906 28.5187C35.5324 28.2445 35.3426 27.9809 35.1316 27.7383H34.8363C35.0895 28.0125 35.3109 28.3078 35.5008 28.6242Z" fill="black"/>
<path d="M21.9375 23.1082L22.3066 23.3191L22.3277 23.4562L22.4859 23.4246L23.6566 24.1102H23.6672C24.0152 24.2789 24.4266 24.4898 24.4793 24.5531C24.5531 24.6586 25.3652 25.1121 26.0297 25.4813L26.0402 25.4918H26.0508C26.5887 25.6078 27.6434 25.8398 27.8121 25.8926C27.9387 25.9348 28.3289 25.9453 28.677 25.9453C28.9828 25.9453 29.2676 25.9348 29.3203 25.9348L30.5859 25.7871L31.5035 25.4496L31.493 25.418L31.7672 25.5973V25.8609L31.377 26.2195L30.491 26.5887L30.3328 26.7258L30.3434 26.652C29.9426 26.6203 29.468 26.557 29.3941 26.5254C29.3414 26.4937 29.257 26.4305 27.2637 26.4305C26.884 26.4305 25.9348 26.2195 25.8188 26.1773C25.7133 26.1457 24.8906 25.8926 24.7324 25.8504C24.5953 25.7133 23.7621 24.9434 23.0977 24.5531L22.9922 24.743C23.6777 25.1438 24.5953 26.0086 24.5953 26.0191L24.6164 26.0402L24.6375 26.0508C24.648 26.0508 25.6395 26.3461 25.7449 26.3777C25.8715 26.4199 26.8418 26.6414 27.2637 26.6414C28.9195 26.6414 29.2254 26.6836 29.2887 26.7047C29.4047 26.768 29.8477 26.8207 30.1852 26.8523L30.0691 26.9473L29.584 27.7383H29.8371L30.2379 27.0844L30.6176 26.768L31.5035 26.3988L31.9992 25.9453V25.4707L31.4613 25.1227L31.0922 23.9625L30.2906 22.8973L29.4574 22.4016L27.443 21.3574L25.8926 21.2098L24.0574 21.3996L22.6441 21.9375L21.8637 22.9078L21.3891 23.1609L21.1992 22.9922L21.2941 22.4227L22.1906 21.5578L22.9816 20.9145L24.0891 20.7035L25.3336 20.6719H26.6625L27.7488 20.7035L28.8773 21.3258C29.3625 21.5789 29.9215 21.8953 29.9742 21.9797C30.048 22.1273 30.8707 22.9078 31.1344 23.1504L31.8832 24.1207L31.9887 24.9012L32.1996 24.8695L32.0836 24.0258L31.2926 23.0027L31.282 22.9922C30.7652 22.5176 30.2062 21.9691 30.1535 21.8742C30.0797 21.716 29.373 21.3363 28.9617 21.1254L28.1918 20.7035L29.9531 20.7352L30.5859 21.1254L31.4191 21.8848L31.8727 22.4543L32.0941 23.6461L32.3051 23.6039L32.073 22.3594L31.5773 21.7477L30.7125 20.9566L30.0059 20.5242L27.7594 20.482L26.652 20.4398H25.3125L24.0574 20.482L22.8656 20.7141L22.0324 21.3996L21.0727 22.3172L20.9461 23.0766L21.3469 23.4246L21.9375 23.1082ZM30.1641 23.066L30.9129 24.068L31.2926 25.2703L31.3348 25.2914L30.5859 25.5762L29.3414 25.7238C28.8668 25.7344 28.0547 25.7449 27.907 25.6922C27.6961 25.6184 26.3039 25.323 26.1352 25.2809C25.4707 24.9223 24.743 24.5109 24.6691 24.4266C24.5848 24.3105 24.0785 24.0574 23.7832 23.9098L22.834 23.3508L23.5301 23.2242C23.9625 23.1715 25.1016 23.0449 25.2492 23.0449C25.3125 23.0449 25.5445 23.066 25.7871 23.0871C26.5043 23.1504 26.8418 23.1715 26.9367 23.1504C27.0422 23.1293 28.0441 23.0238 28.698 22.9711L29.7316 22.8973L29.7211 22.7918L30.1641 23.066ZM22.7812 22.1168L24.1102 21.6105L25.9031 21.4312L27.3902 21.5789L29.3625 22.602L29.5418 22.7074L28.6664 22.7707C28.4977 22.7812 27.0211 22.9184 26.8734 22.9605C26.7785 22.9816 26.1668 22.9184 25.7871 22.8867C25.5129 22.8656 25.302 22.8445 25.2281 22.8445C25.0383 22.8445 23.5406 23.0238 23.4773 23.0344L22.5281 23.2137L22.0957 22.9605L22.7812 22.1168Z" fill="black"/>
<path d="M29.4891 27.8965C29.2465 28.0336 29.0039 28.1391 28.7508 28.2445C28.6348 28.2445 27.9809 28.5504 27.4535 28.8035C27.3586 28.8352 26.4938 29.0988 26.2934 29.1305L26.325 29.3414C26.5465 29.2992 27.4852 29.0145 27.5273 29.0039L27.5379 28.9934C28.0652 28.7402 28.6664 28.466 28.7508 28.4449C28.8773 28.4344 29.3414 28.2023 29.6051 28.0652L29.6262 28.0547L29.8266 27.7277H29.5734L29.4891 27.8965Z" fill="black"/>
<path d="M30.5016 19.2586L30.3645 19.3535C30.4277 19.343 30.491 19.343 30.5543 19.3324L30.5016 19.2586Z" fill="black"/>
<path d="M30.9973 20.3449L31.2715 20.8195L31.1344 21.2941L31.3453 21.3574L31.5035 20.7984L31.1871 20.2395L30.5648 19.343C30.5016 19.3535 30.4383 19.3535 30.375 19.3641L30.3328 19.3957L30.9973 20.3449Z" fill="black"/>
<path d="M37.452 20.0918L38.3906 19.9969C38.3906 19.9969 40.732 20.693 40.827 20.7879C40.9219 20.8828 42.1031 21.3996 42.1031 21.3996L42.7992 21.4629L42.8941 20.8301L42.3773 20.0918L40.8902 18.9949L39.1922 18.1723L38.127 17.8031L37.7473 12.4242L36.8508 11.0848L35.5113 9.98789L33.7816 9.13359L31.9887 9.10195L28.6137 9.52383L25.5129 10.1355L25.3336 9.6082C25.091 9.54492 24.8484 9.50273 24.6059 9.47109C24.4266 9.47109 22.7812 9.97734 22.7812 9.97734L21.7793 10.5047L21.5684 11.1164L20.134 11.9074L18.9738 13.3629L18.3094 14.7656C18.3094 14.7656 17.9719 16.1684 17.9719 16.2527C17.9719 16.3371 18.1512 17.107 18.2777 17.1598C18.4043 17.2125 19.343 17.4656 19.343 17.4656L20.577 18.0773L22.3594 19.1109L24.5742 19.8387C24.5742 19.8387 26.673 19.691 26.884 19.691C27.0949 19.691 30.259 19.3535 30.4383 19.3535C30.6176 19.3535 34.0875 19.0793 34.1824 19.0793C34.2773 19.0793 36.3445 19.0477 36.3445 19.0477L37.1672 19.7754L37.452 20.0918Z" fill="#C82727"/>
<path d="M36.6293 23.0766L36.9035 23.6566L37.0723 24.3211L36.9879 24.743L36.6293 25.6605L35.4902 25.8504L33.6551 25.5234L33.4336 24.8801L33.518 24.3L33.7078 23.3824L34.1824 22.8551L34.4883 23.0238L36.5133 23.0766" fill="black"/>
<path d="M28.2762 22.9922L28.6137 23.6355L28.6453 24.416L28.4766 25.1121L28.118 25.6711L27.5379 25.7027L25.3125 25.0383L24.4266 24.2578L24.5426 23.7621L24.8484 23.2875L25.2598 22.9605L26.8207 23.0027C26.7996 22.9922 28.2129 23.1082 28.2762 22.9922Z" fill="black"/>
<path d="M42.6094 20.1762L41.7445 19.4168L40.5 18.5836L38.4539 17.8348L38.1691 17.7188L38.0848 15.9574C37.9793 15.0926 37.8316 13.7848 37.8316 13.6793C37.8316 13.5316 37.7578 12.4559 37.7578 12.4137V12.3926L37.1461 11.2852L36.123 10.2305L34.5516 9.33398L33.2438 8.96484H31.4508L29.6895 9.18633C28.9828 9.30234 27.8754 9.48164 27.7488 9.48164C27.559 9.48164 26.0824 9.81914 25.9137 9.85078L25.3969 9.98789L25.4813 9.9457L25.3125 9.6082L24.7641 9.39727L23.9625 9.47109L22.6758 9.7875L21.7055 10.4098L21.5051 10.9266L21.6422 10.9793L21.1043 11.1164H21.0832L19.9441 11.8336L19.1531 12.7301L18.4359 13.9324L17.8664 15.8941V16.6008L18.2355 17.2547L20.5453 18.0773L21.3152 18.7734L23.0344 19.5539L24.5531 19.9336L27.3902 19.7437L31.493 19.3008L34.4145 19.0793L36.8402 19.1109L39.4031 19.4801L41.4281 20.4398L41.523 20.25L39.477 19.2797L36.8719 18.9105L34.4145 18.8684L31.4824 19.0898L27.3797 19.5328L24.5848 19.7121L23.1293 19.3535L21.4523 18.5836L20.6719 17.877L18.3937 17.0648L18.0984 16.5375V15.9152L18.6469 14.0168L19.343 12.8566L20.1023 11.9918L21.1887 11.3062L25.977 10.0512C26.5992 9.91406 27.6434 9.68203 27.7699 9.68203C27.9598 9.68203 29.5629 9.41836 29.7422 9.38672L31.4719 9.16523H33.2227L34.4566 9.52383L35.9859 10.3992L36.9668 11.4117L37.5363 12.4559C37.5574 12.8461 37.6102 13.5738 37.6102 13.6793C37.6102 13.827 37.8422 15.7676 37.8738 15.9785L37.9582 17.6344L36.7137 17.1598L34.2562 16.8961L32.4 16.7062L30.5754 16.8539L28.466 17.0754L26.0086 17.6344L24.1629 18.0773L22.9289 18.1512L21.3469 17.8348L22.1484 18.4148L22.8023 18.7945L24.3 19.1637L25.766 19.2059H25.7766L27.0844 19.0582L28.9301 18.7629L30.7336 18.4676L32.7586 18.3199L34.1613 18.2461L35.8488 18.3516L38.1375 18.6469L41.0906 19.2059L41.6074 19.5434L42.4301 20.2605L42.6621 20.7984L42.6094 21.1992L42.1664 21.2309L41.3016 20.8301L39.709 20.1973L38.4539 19.8176L37.357 19.9336L37.3781 20.1445L38.4328 20.0391L39.6246 20.3977L41.2066 21.0199L42.1242 21.4418L42.7887 21.3996L42.8836 20.7668L42.6094 20.1762ZM21.7266 10.9477L21.8848 10.5469L22.7602 9.98789L23.9941 9.69258L24.743 9.61875L25.1648 9.77695L25.2809 10.009L21.7266 10.9477ZM38.1691 18.4781L35.8594 18.1828L34.1508 18.0668L32.7375 18.1406L30.702 18.2883L28.8773 18.5836L27.0316 18.8789L25.7449 19.0266L24.3211 18.9949L22.8656 18.6363L22.2539 18.2777H22.2434L22.8867 18.4043L24.1629 18.3305L26.0297 17.8875L28.466 17.3391L30.5648 17.1176L32.3684 16.9699L34.2035 17.1492L36.6293 17.4023L38.359 18.0668L40.384 18.8051L40.616 18.9633L38.1691 18.4781Z" fill="black"/>
<path d="M27.5811 24.7405C27.9328 24.6359 28.1466 24.3112 28.0586 24.0153C27.9706 23.7194 27.6141 23.5643 27.2623 23.6689C26.9106 23.7736 26.6968 24.0983 26.7848 24.3942C26.8728 24.6901 27.2293 24.8451 27.5811 24.7405Z" fill="white"/>
<path d="M25.8609 24.6797C26.0124 24.6797 26.1352 24.5569 26.1352 24.4055C26.1352 24.254 26.0124 24.1313 25.8609 24.1313C25.7095 24.1313 25.5867 24.254 25.5867 24.4055C25.5867 24.5569 25.7095 24.6797 25.8609 24.6797Z" fill="white"/>
<path d="M25.6922 23.8254C25.8436 23.8254 25.9664 23.7026 25.9664 23.5512C25.9664 23.3997 25.8436 23.277 25.6922 23.277C25.5407 23.277 25.418 23.3997 25.418 23.5512C25.418 23.7026 25.5407 23.8254 25.6922 23.8254Z" fill="white"/>
<path d="M34.6254 25.0277C34.7652 25.0277 34.8785 24.9144 34.8785 24.7746C34.8785 24.6348 34.7652 24.5215 34.6254 24.5215C34.4856 24.5215 34.3723 24.6348 34.3723 24.7746C34.3723 24.9144 34.4856 25.0277 34.6254 25.0277Z" fill="white"/>
<path d="M34.5938 24.068C34.7452 24.068 34.868 23.9452 34.868 23.7938C34.868 23.6423 34.7452 23.5195 34.5938 23.5195C34.4423 23.5195 34.3195 23.6423 34.3195 23.7938C34.3195 23.9452 34.4423 24.068 34.5938 24.068Z" fill="white"/>
<path d="M36.102 24.8484C36.3757 24.8484 36.5977 24.6265 36.5977 24.3527C36.5977 24.079 36.3757 23.857 36.102 23.857C35.8282 23.857 35.6063 24.079 35.6063 24.3527C35.6063 24.6265 35.8282 24.8484 36.102 24.8484Z" fill="white"/>
</svg>
