<svg width="54" height="54" viewBox="0 0 54 54" fill="none" xmlns="http://www.w3.org/2000/svg">
<path d="M39.0839 4.75412C37.6943 6.14364 36.4213 7.64965 35.2897 9.2555L34.9319 9.13901C32.8685 8.46505 30.7301 8.04903 28.5751 7.90758C27.9261 7.85766 25.5048 7.85766 24.7144 7.90758C22.3264 8.06567 20.4959 8.42345 18.4158 9.14734C18.3326 9.18062 18.2577 9.20558 18.1828 9.23054C17.0096 7.633 15.7033 6.13532 14.2638 4.76244C21.1698 1.22623 29.249 0.801881 36.4796 3.58925C37.2534 3.88046 38.0105 4.2216 38.751 4.58771L39.0839 4.75412Z" fill="#F00500"/>
<path d="M51.964 36.3137C50.9156 39.3008 49.343 42.0715 47.3045 44.4845C46.1979 45.7825 44.9748 46.9723 43.6601 48.054C40.5816 50.5335 36.9871 52.3057 33.1514 53.2376C28.9079 54.261 24.4814 54.261 20.238 53.2376C16.3939 52.3057 12.8078 50.5335 9.72917 48.054C8.41454 46.9723 7.19142 45.7825 6.08479 44.4845C0.218846 37.5535 -1.56174 28.0349 1.42532 19.4564C1.99111 17.8672 2.69835 16.3362 3.54704 14.8802C3.93811 14.2145 4.4207 13.4657 4.65367 13.1578C5.45244 16.5942 6.43425 19.6145 6.80035 20.7045C6.77539 20.7627 6.74211 20.8293 6.70883 20.8876C4.77016 24.8148 3.72178 28.6006 3.47216 32.6278C3.47216 32.6777 3.46384 32.7359 3.46384 32.7859C3.39727 33.9923 3.43056 34.5664 3.63025 35.3236C4.25428 37.6949 6.17632 40.3076 9.18834 42.8703C14.1224 47.0638 20.8121 50.0925 25.8792 50.4419C31.1628 50.7997 38.9591 47.7128 44.1511 43.2031C44.9665 42.4792 45.7319 41.7137 46.4475 40.8983C46.9634 40.2993 47.7289 39.2675 47.6706 39.2675C47.654 39.2675 47.6706 39.2509 47.7039 39.2342C47.7289 39.2176 47.7538 39.1926 47.7372 39.176C47.7289 39.1677 47.7455 39.1427 47.7705 39.1344C47.7954 39.1261 47.8121 39.1094 47.8037 39.0928C47.7954 39.0761 47.8038 39.0595 47.837 39.0512C47.862 39.0429 47.8703 39.0179 47.862 39.0013C47.8537 38.9846 47.862 38.968 47.8786 38.968C47.8953 38.968 47.9119 38.943 47.9119 38.9264C47.9119 38.9097 47.9285 38.8848 47.9452 38.8848C47.9618 38.8848 47.9785 38.8681 47.9785 38.8515C48.0034 38.7849 48.045 38.7184 48.0866 38.6601C48.2115 38.4688 48.7107 37.5785 48.7772 37.4287C49.2515 36.3553 49.551 35.3985 49.6925 34.4416C49.7591 33.984 49.8007 33.1436 49.7674 32.9439C49.7591 32.9107 49.7591 32.8524 49.7507 32.7609C49.7341 32.5945 49.7258 32.3449 49.7091 32.0953C49.6925 31.7208 49.6592 31.1966 49.6343 30.9387C49.2765 27.1612 48.3113 24.0743 46.4808 20.8043C46.4059 20.6795 46.3393 20.5547 46.2977 20.4549C46.2811 20.4299 46.2728 20.405 46.2645 20.3883C46.5224 19.6145 47.5791 16.3778 48.4195 12.6752L48.4361 12.6919L48.5609 12.8583C48.7772 13.1495 49.3514 14.0148 49.6093 14.4308C50.7825 16.3446 51.6977 18.3997 52.3467 20.5464C53.8527 25.7134 53.7279 31.2216 51.964 36.3137Z" fill="#F00500"/>
<path d="M41.164 26.3708C41.139 26.5039 40.748 26.9033 40.3569 27.1945C39.2087 28.0349 37.1535 28.817 35.0651 29.1914C33.8752 29.4077 32.6854 29.441 32.3276 29.2663C32.0947 29.1498 32.0614 29.0583 32.1446 28.7587C32.3193 28.1347 32.8851 27.4524 33.7671 26.8117C34.2164 26.4872 36.0386 25.3806 36.8873 24.9147C38.2851 24.1492 39.4167 23.6916 40.1822 23.5834C40.4235 23.5501 40.7147 23.5418 40.8062 23.5834C40.956 23.6416 41.1224 24.0826 41.189 24.6151C41.2222 24.898 41.2056 26.1461 41.164 26.3708Z" fill="black"/>
<path d="M21.5609 29.1248C21.511 29.2247 21.2614 29.3329 20.9785 29.3745C20.6956 29.4161 19.8302 29.3911 19.3393 29.3329C17.5754 29.0999 15.7033 28.559 14.3387 27.8934C13.5732 27.519 13.0241 27.1446 12.6164 26.7369L12.3834 26.4956L12.3584 26.1794C12.3168 25.6302 12.3252 24.7649 12.3917 24.457C12.4333 24.1991 12.5249 23.9495 12.6497 23.7248C12.7162 23.6416 12.7162 23.6416 13.0158 23.6416C13.3819 23.6416 13.6897 23.6999 14.189 23.858C15.2124 24.1741 16.735 24.9396 18.5905 26.0546C20.1215 26.9698 20.6956 27.4191 21.1366 28.0349C21.4361 28.4176 21.6358 28.9584 21.5609 29.1248Z" fill="black"/>
<path d="M33.3427 40.707C33.3427 40.7319 33.2429 41.1313 33.1181 41.6056C32.9933 42.0798 32.8934 42.4626 32.8934 42.4792C32.8019 42.4876 32.7187 42.4959 32.6272 42.4875H32.3609L31.9948 43.3529C31.7951 43.8272 31.6121 44.2681 31.5871 44.3347L31.5372 44.4512L31.1877 43.8854V41.5806L31.1212 41.5973C30.9797 41.6305 29.9729 41.7637 29.5319 41.8053C27.7098 41.9883 25.8792 41.9467 24.0654 41.6888C23.7742 41.6472 23.5245 41.6139 23.5162 41.6222C23.5079 41.6305 23.5162 42.1631 23.5329 42.8204L23.5578 44.0019L23.4164 44.2182C23.3415 44.3347 23.2666 44.4345 23.2666 44.4429C23.2416 44.4678 23.1584 44.3347 22.9671 43.952C22.7591 43.5526 22.6093 43.1282 22.5011 42.6872L22.4429 42.4459L22.1849 42.4626L21.927 42.4875L21.8604 42.1797C21.8272 42.0133 21.7856 41.7553 21.7689 41.6139L21.744 41.3476L21.5276 41.1563C21.4028 41.0481 21.278 40.9399 21.2531 40.9233C21.2115 40.89 21.1948 40.8318 21.1948 40.7818V40.682L23.2749 40.6986L23.3415 40.915L23.6993 40.9316C23.899 40.9399 24.5313 40.9566 25.0971 40.9732L26.1372 40.9982L26.4034 40.5822L26.678 40.1661H27.0275L27.0108 38.4355L26.5532 38.2358C25.0805 37.5868 24.2151 36.8463 23.8906 35.9476C23.8241 35.7646 23.8241 35.698 23.8074 34.866C23.7991 34.0422 23.7991 33.9674 23.8574 33.7843C23.9738 33.3683 24.2984 33.0438 24.7144 32.9356C24.8558 32.894 25.2303 32.894 27.1939 32.894L29.507 32.9023L29.7649 33.0272C30.0728 33.1769 30.2142 33.2851 30.389 33.5181C30.5886 33.7843 30.6469 33.9923 30.6469 34.4999C30.6469 35.2238 30.597 35.8478 30.5221 36.0974C30.4139 36.4386 30.2475 36.7631 30.0395 37.0543C29.6235 37.5868 28.8663 38.1193 28.1757 38.3606L27.976 38.4355L27.9927 40.1828L28.3588 40.2161L28.6084 40.5905L28.8497 40.9649H29.9646C30.5803 40.9649 31.1212 40.9732 31.1711 40.9815C31.2543 40.9982 31.2709 40.9899 31.3541 40.8484L31.454 40.6986H32.4108C33.1264 40.6654 33.3427 40.682 33.3427 40.707Z" fill="black"/>
<path d="M28.9495 43.0949C28.7914 43.1865 28.6833 43.2281 28.6583 43.2114C28.6333 43.2031 28.5168 43.1033 28.392 43.0117L28.1674 42.8287L27.9344 43.0783C27.4269 43.6275 27.4102 43.6524 27.2604 43.6607C27.0275 43.6857 26.9776 43.6441 26.6947 43.2198C26.5449 43.0034 26.4284 42.8204 26.4284 42.8204C26.4284 42.8204 26.3202 42.8037 26.1954 42.7954L25.9625 42.7704L25.7461 43.2198L25.5547 43.1615C25.405 43.1116 25.2552 43.0533 25.1138 42.9868L24.8642 42.862V42.3877L29.2906 42.4043L29.299 42.629C29.3073 42.8953 29.3156 42.8869 28.9495 43.0949Z" fill="black"/>
<path d="M49.7507 32.9439C49.7424 32.9107 49.7424 32.8524 49.7341 32.7609C47.7372 32.5446 42.0376 32.4114 36.7458 36.7797C36.7458 36.7797 35.0401 28.9584 27.0524 28.9584C19.0648 28.9584 16.1027 36.7797 16.1027 36.7797C11.6262 31.9621 5.63549 32.3116 3.47216 32.6278C3.47216 32.6777 3.46384 32.7359 3.46384 32.7859C3.39727 33.9923 3.43056 34.5664 3.63025 35.3236C4.25428 37.6949 6.17632 40.3076 9.18834 42.8703C14.1224 47.0638 20.8121 50.0925 25.8792 50.4419C31.1628 50.7997 38.9591 47.7128 44.1511 43.2031C44.9665 42.4792 45.7319 41.7137 46.4475 40.8983C46.9634 40.2993 47.7289 39.2675 47.6706 39.2675C47.654 39.2675 47.6706 39.2509 47.7039 39.2342C47.7289 39.2176 47.7538 39.1926 47.7372 39.176C47.7289 39.1677 47.7455 39.1427 47.7705 39.1344C47.7954 39.1261 47.8121 39.1094 47.8037 39.0928C47.7954 39.0761 47.8038 39.0595 47.837 39.0512C47.862 39.0429 47.8703 39.0179 47.862 39.0013C47.8537 38.9846 47.862 38.968 47.8786 38.968C47.8953 38.968 47.9119 38.943 47.9119 38.9264C47.9119 38.9097 47.9285 38.8848 47.9452 38.8848C47.9618 38.8848 47.9785 38.8681 47.9785 38.8515C48.0034 38.7849 48.045 38.7184 48.0866 38.6601C48.2115 38.4688 48.7107 37.5785 48.7772 37.4287C49.2515 36.3553 49.551 35.3985 49.6925 34.4416C49.7424 33.984 49.784 33.1436 49.7507 32.9439ZM28.9495 43.0949C28.7914 43.1865 28.6833 43.2281 28.6583 43.2114C28.6333 43.2031 28.5168 43.1033 28.392 43.0117L28.1674 42.8287L27.9344 43.0783C27.4269 43.6275 27.4102 43.6524 27.2604 43.6607C27.0275 43.6857 26.9776 43.6441 26.6947 43.2198C26.5449 43.0034 26.4284 42.8204 26.4284 42.8204C26.4284 42.8204 26.3202 42.8037 26.1954 42.7954L25.9625 42.7704L25.7461 43.2198L25.5547 43.1615C25.405 43.1116 25.2552 43.0533 25.1138 42.9868L24.8642 42.862V42.3877L29.2906 42.4043L29.299 42.629C29.3073 42.8953 29.3156 42.8869 28.9495 43.0949ZM33.1098 41.5973C32.9849 42.0715 32.8851 42.4543 32.8851 42.4709C32.7936 42.4792 32.7104 42.4875 32.6188 42.4792H32.3526L31.9948 43.3529C31.7951 43.8272 31.6121 44.2681 31.5871 44.3347L31.5372 44.4512L31.1877 43.8854V41.5806L31.1212 41.5973C30.9797 41.6305 29.9729 41.7637 29.5319 41.8053C27.7098 41.9883 25.8792 41.9467 24.0654 41.6888C23.7742 41.6472 23.5245 41.6139 23.5162 41.6222C23.5079 41.6305 23.5162 42.1631 23.5329 42.8204L23.5578 44.0019L23.4164 44.2182C23.3415 44.3347 23.2666 44.4345 23.2666 44.4429C23.2416 44.4678 23.1584 44.3347 22.9671 43.952C22.7591 43.5526 22.6093 43.1282 22.5011 42.6872L22.4429 42.4459L22.1849 42.4626L21.927 42.4875L21.8604 42.1797C21.8272 42.0133 21.7856 41.7553 21.7689 41.6139L21.744 41.3476L21.5276 41.1563C21.4028 41.0481 21.278 40.9399 21.2531 40.9233C21.2115 40.89 21.1948 40.8318 21.1948 40.7818V40.682L23.2749 40.6986L23.3415 40.915L23.6993 40.9316C23.899 40.9399 24.5313 40.9566 25.0971 40.9732L26.1372 40.9982L26.4034 40.5822L26.678 40.1661H27.0275L27.0108 38.4355L26.5532 38.2358C25.0805 37.5868 24.2151 36.8463 23.8906 35.9476C23.8241 35.7646 23.8241 35.698 23.8074 34.866C23.7991 34.0422 23.7991 33.9674 23.8574 33.7843C23.9738 33.3683 24.2984 33.0438 24.7144 32.9356C24.8558 32.894 25.2303 32.894 27.1939 32.894L29.507 32.9023L29.7649 33.0272C30.0728 33.1769 30.2142 33.2851 30.389 33.5181C30.5886 33.7843 30.6469 33.9923 30.6469 34.4999C30.6469 35.2238 30.597 35.8478 30.5221 36.0974C30.4139 36.4386 30.2475 36.7631 30.0395 37.0543C29.6235 37.5868 28.8663 38.1193 28.1757 38.3606L27.976 38.4355L27.9927 40.1828L28.3588 40.2161L28.6084 40.5905L28.8497 40.9649H29.9646C30.5803 40.9649 31.1212 40.9732 31.1711 40.9815C31.2543 40.9982 31.2709 40.9899 31.3541 40.8484L31.454 40.6986H32.4108C33.1514 40.6986 33.3677 40.707 33.3677 40.7319C33.3427 40.7236 33.2346 41.1313 33.1098 41.5973Z" fill="white"/>
<path d="M49.6842 32.0953C49.6675 31.7208 49.6343 31.1966 49.6093 30.9387C49.2515 27.1612 48.2863 24.0743 46.4558 20.8043C46.3809 20.6795 46.3144 20.5547 46.2728 20.4549C46.2561 20.4299 46.2478 20.405 46.2395 20.3883C46.4974 19.6145 47.5541 16.3778 48.3945 12.6752C49.5344 7.64965 50.2583 1.77538 48.045 0.0114344C48.045 0.0114344 44.2176 -0.271462 39.0922 4.75412C37.7027 6.14364 36.4296 7.64965 35.298 9.2555L34.9403 9.13901C32.8768 8.46505 30.7384 8.04903 28.5834 7.90758C27.9344 7.85766 25.5131 7.85766 24.7227 7.90758C22.3347 8.06567 20.5042 8.42345 18.4241 9.14734C18.3409 9.18062 18.266 9.20558 18.1911 9.23054C17.0179 7.633 15.7116 6.13532 14.2722 4.76244C8.93872 -0.288103 4.96985 0.00311338 4.96985 0.00311338C2.62347 1.8253 3.42224 7.96583 4.63703 13.1578C5.4358 16.5942 6.41761 19.6145 6.78372 20.7045C6.75875 20.7627 6.72547 20.8293 6.69219 20.8876C4.75352 24.8148 3.70513 28.6006 3.45552 32.6278C5.62717 32.3116 11.6096 31.9538 16.0943 36.7797C16.0943 36.7797 19.0564 28.9584 27.0441 28.9584C35.0318 28.9584 36.7375 36.7797 36.7375 36.7797C42.0293 32.4114 47.7289 32.5529 49.7258 32.7609C49.7175 32.5945 49.7008 32.3449 49.6842 32.0953ZM8.35629 17.5677C8.35629 17.5677 5.24442 9.78801 6.04319 5.34487C6.17632 4.59603 6.42594 3.93871 6.817 3.43948C6.817 3.43948 10.3449 3.78894 16.0361 10.1125C16.0361 10.1125 14.9544 10.6367 13.5067 11.7517C13.5067 11.7517 13.4984 11.76 13.49 11.76C11.9175 12.9664 9.9039 14.8802 8.35629 17.5677ZM21.5609 29.1248C21.511 29.2247 21.2614 29.3329 20.9785 29.3745C20.6956 29.4161 19.8302 29.3911 19.3393 29.3329C17.5754 29.0999 15.7033 28.559 14.3387 27.8934C13.5732 27.519 13.0241 27.1446 12.6164 26.7369L12.3834 26.4956L12.3584 26.1794C12.3168 25.6302 12.3252 24.7649 12.3917 24.457C12.4333 24.1991 12.5249 23.9495 12.6497 23.7248C12.7162 23.6416 12.7162 23.6416 13.0158 23.6416C13.3819 23.6416 13.6897 23.6999 14.189 23.858C15.2124 24.1741 16.735 24.9396 18.5905 26.0546C20.1215 26.9698 20.6956 27.4191 21.1366 28.0349C21.4361 28.4176 21.6358 28.9584 21.5609 29.1248ZM41.164 26.3708C41.139 26.5039 40.748 26.9033 40.3569 27.1945C39.2087 28.0349 37.1535 28.817 35.0651 29.1914C33.8752 29.4077 32.6854 29.441 32.3276 29.2663C32.0947 29.1498 32.0614 29.0583 32.1446 28.7587C32.3193 28.1347 32.8851 27.4524 33.7671 26.8117C34.2164 26.4872 36.0386 25.3806 36.8873 24.9147C38.2851 24.1492 39.4167 23.6916 40.1822 23.5834C40.4235 23.5501 40.7147 23.5418 40.8062 23.5834C40.956 23.6416 41.1224 24.0826 41.189 24.6151C41.2222 24.898 41.2056 26.1461 41.164 26.3708ZM39.7828 11.7517L39.7662 11.7433C38.3683 10.6284 37.3199 10.1042 37.3199 10.1042C42.8198 3.78062 46.2229 3.43116 46.2229 3.43116C46.5973 3.93871 46.8386 4.58771 46.9717 5.33655C47.7455 9.77969 44.7418 17.5677 44.7418 17.5677C43.4854 15.3295 41.7964 13.3492 39.7828 11.7517Z" fill="#FFA409"/>
<path d="M46.98 5.33655C46.331 5.25334 43.2608 5.2367 39.7828 11.7517L39.7662 11.7433C38.3683 10.6284 37.3199 10.1042 37.3199 10.1042C42.8198 3.78062 46.2229 3.43116 46.2229 3.43116C46.6056 3.93871 46.8469 4.58771 46.98 5.33655Z" fill="#FF9300"/>
<path d="M44.7501 17.5677C43.4854 15.3211 41.8047 13.3492 39.7828 11.7517C43.2608 5.2367 46.3227 5.25334 46.98 5.33655C47.7538 9.78801 44.7501 17.5677 44.7501 17.5677Z" fill="#FF8300"/>
<path d="M47.1048 5.36151C47.0632 5.35319 47.0216 5.34487 46.98 5.33655L47.1048 5.36151Z" fill="#FF8300"/>
<path d="M16.0361 10.1042C16.0361 10.1042 14.9544 10.6284 13.5067 11.7433C13.5067 11.7433 13.4984 11.7516 13.49 11.7516C9.88726 5.22838 6.71715 5.25334 6.03487 5.33655C6.168 4.5877 6.41762 3.93039 6.80868 3.43116C6.817 3.43116 10.3449 3.78062 16.0361 10.1042Z" fill="#FF9300"/>
<path d="M13.4984 11.7517C11.9175 12.9664 9.9039 14.8718 8.35629 17.5677C8.35629 17.5677 5.24442 9.78801 6.04319 5.33655C6.71715 5.25334 9.89558 5.2367 13.4984 11.7517Z" fill="#FF8300"/>
<path d="M6.04319 5.33655C6.00159 5.34487 5.95167 5.35319 5.91006 5.36151L6.04319 5.33655Z" fill="#FF8300"/>
<path d="M36.3298 21.886C36.3298 21.886 33.6672 22.0524 34 19.9723C34.3329 17.8922 36.413 17.6426 36.9954 17.7258C37.5779 17.809 39.9076 18.641 39.4916 20.3883C39.0755 22.1356 38.4931 21.8028 38.1603 21.886C37.8275 21.9692 36.3298 21.886 36.3298 21.886Z" fill="white"/>
<path d="M16.6934 21.886C16.6934 21.886 14.0309 22.0524 14.3637 19.9723C14.6965 17.8922 16.7766 17.6426 17.3591 17.7258C17.9415 17.809 20.2712 18.641 19.8552 20.3883C19.4392 22.1356 18.8567 21.8028 18.5239 21.886C18.1911 21.9692 16.6934 21.886 16.6934 21.886Z" fill="white"/>
</svg>
