<svg width="56" height="56" viewBox="0 0 56 56" fill="none" xmlns="http://www.w3.org/2000/svg">
<path d="M28 56C43.464 56 56 43.464 56 28C56 12.536 43.464 0 28 0C12.536 0 0 12.536 0 28C0 43.464 12.536 56 28 56Z" fill="#0088CC"/>
<path fill-rule="evenodd" clip-rule="evenodd" d="M20.2002 18.5H35.9002C36.5002 18.5 37.0002 18.6 37.6002 18.9C38.3002 19.2 38.7002 19.7 38.9002 20.1C38.9002 20.1 38.9002 20.2 39.0002 20.2C39.3002 20.7 39.5002 21.3 39.5002 22C39.5002 22.6 39.4002 23.2 39.0002 23.8L29.1002 40.8C28.9002 41.2 28.5002 41.4 28.0002 41.4C27.6002 41.4 27.2002 41.2 26.9002 40.8L17.2002 23.8C17.0002 23.4 16.6002 22.9 16.6002 22.1C16.5002 21.4 16.7002 20.8 17.0002 20.2C17.3002 19.6 17.8002 19.1 18.5002 18.9C19.1002 18.5 19.8002 18.5 20.2002 18.5ZM26.8002 20.9H20.2002C19.8002 20.9 19.6002 20.9 19.5002 21C19.3002 21.1 19.2002 21.2 19.1002 21.4C19.0002 21.5 19.0002 21.7 19.0002 21.9C19.0002 22 19.1002 22.1 19.3002 22.5L26.8002 35.5V20.9ZM29.2002 20.9V35.6L36.8002 22.5C36.9002 22.3 36.9002 22.1 36.9002 21.9C36.9002 21.7 36.9002 21.5 36.8002 21.4C36.7002 21.3 36.7002 21.2 36.6002 21.2L36.5002 21.1C36.3002 21 36.1002 21 35.8002 21H29.2002V20.9Z" fill="white"/>
</svg>
