<svg width="54" height="54" viewBox="0 0 54 54" fill="none" xmlns="http://www.w3.org/2000/svg">
<path d="M50.9326 16.2672C48.4014 13.9301 44.8998 10.361 42.0479 7.82974L41.8792 7.71162C41.5984 7.48615 41.2818 7.30932 40.9426 7.18849C34.0661 5.90599 2.06262 -0.0761975 1.43824 -0.000259995C1.26329 0.0242426 1.09606 0.0876745 0.948867 0.185365L0.788555 0.311928C0.591155 0.512403 0.441226 0.754596 0.349805 1.02068L0.307617 1.13037V1.82224C3.91043 11.8544 18.1361 44.7185 20.9373 52.4304C21.1061 52.9535 21.4267 53.9491 22.0257 53.9997H22.1607C22.4814 53.9997 23.8482 52.1941 23.8482 52.1941C23.8482 52.1941 48.2832 22.5616 50.7554 19.406C51.0754 19.0173 51.3579 18.5992 51.5992 18.1572C51.6608 17.8115 51.6317 17.4556 51.5149 17.1244C51.3981 16.7932 51.1975 16.4979 50.9326 16.2672ZM30.1173 19.7182L40.5461 11.0697L46.6632 16.706L30.1173 19.7182ZM26.0673 19.1529L8.1123 4.43787L37.1626 9.79568L26.0673 19.1529ZM27.6873 23.0088L46.0642 20.0472L25.0548 45.3597L27.6873 23.0088ZM5.67387 5.90599L24.5654 21.9372L21.8317 45.3766L5.67387 5.90599Z" fill="#FF060A"/>
</svg>
