<svg width="40" height="40" viewBox="0 0 40 40" fill="none" xmlns="http://www.w3.org/2000/svg">
<g id="Tether logo">
<circle id="Ellipse 16" cx="20" cy="20" r="20" fill="#50AF95"/>
<path id="Vector" fill-rule="evenodd" clip-rule="evenodd" d="M17.5584 21.8583C17.6948 21.8685 18.3994 21.9105 19.971 21.9105C21.2211 21.9105 22.1086 21.8731 22.42 21.8583C27.2509 21.6463 30.8568 20.8071 30.8568 19.8024C30.8568 18.7976 27.2509 17.9596 22.42 17.7441V21.0226C22.1041 21.0452 21.1995 21.0985 19.9494 21.0985C18.4494 21.0985 17.6982 21.0362 17.563 21.0237V17.7464C12.7423 17.9607 9.14437 18.7999 9.14437 19.8024C9.14437 20.8048 12.7411 21.644 17.563 21.8572L17.5584 21.8583ZM17.5584 17.4073V14.4737H10.8308V10H29.1476V14.4737H22.4211V17.4062C27.8884 17.6568 32 18.7375 32 20.0326C32 21.3276 27.8884 22.4072 22.4211 22.6589V32.0599H17.5595V22.6555C12.1047 22.4049 8 21.3253 8 20.0314C8 18.7375 12.1013 17.658 17.5595 17.4062L17.5584 17.4073Z" fill="white"/>
</g>
</svg>
